<?xml version="1.0" standalone="no"?>
<!DOCTYPE svg PUBLIC "-//W3C//DTD SVG 1.1//EN" "http://www.w3.org/Graphics/SVG/1.1/DTD/svg11.dtd" >
<svg xmlns="http://www.w3.org/2000/svg">
<metadata>
This is a custom SVG webfont generated by Font Squirrel.
Copyright   :  1992 AG Fonts created by Andrejs Grinbergs
</metadata>
<defs>
<font id="AGOpusCRegular" horiz-adv-x="1138" >
<font-face units-per-em="2048" ascent="1507" descent="-541" />
<missing-glyph horiz-adv-x="569" />
<glyph unicode=" "  horiz-adv-x="569" />
<glyph unicode="&#x09;" horiz-adv-x="569" />
<glyph unicode="&#xa0;" horiz-adv-x="569" />
<glyph unicode="!" horiz-adv-x="681" d="M217 100q0 49 38 86t87 37t85 -36.5t36 -86.5q0 -51 -36 -87t-85 -36q-51 0 -88 36t-37 87zM241 1299.5q-3 46.5 21.5 86t77.5 39.5t77.5 -39.5t21.5 -86t-3 -78.5l-74 -867h-40l-78 867q0 32 -3 78.5z" />
<glyph unicode="&#x22;" horiz-adv-x="681" d="M104 915v347q-6 86 9.5 124.5t60.5 38.5t59.5 -38.5t8.5 -124.5v-347q14 -123 -68 -122q-47 0 -61.5 28t-8.5 94zM438 915v347q-6 86 9.5 124.5t60.5 38.5t59.5 -38.5t7.5 -124.5v-347q14 -123 -67 -122q-47 0 -61.5 28t-8.5 94z" />
<glyph unicode="#" d="M68 442v115h237l43 272h-225v115h242l63 416h119l-64 -416h273l61 416h119l-62 -416h199v-115h-215l-41 -272h205v-115h-223l-64 -442h-119l64 442h-274l-68 -442h-119l68 442h-219zM424 557h274l41 272h-272z" />
<glyph unicode="$" d="M154 84q37 129 36 176h23q66 -100 138.5 -150.5t185.5 -50.5v574q-61 23 -88 33t-87.5 44.5t-90 68.5t-56.5 92.5t-27 127.5q0 162 95.5 256.5t253.5 118.5v158q2 0 17 -3t23.5 -3t23.5 3t17 3v-152q201 0 310 -94q-33 -72 -54 -162h-22q-76 166 -234 174v-514 q16 -6 69.5 -27.5t83.5 -34.5t76 -43t71.5 -61.5t45 -83t19.5 -112.5q0 -176 -102.5 -290t-262.5 -142v-228q-2 0 -17 3.5t-23.5 3.5t-23.5 -3.5t-17 -3.5v215q-127 0 -219 20.5t-164 86.5zM348 1063q0 -25 4 -47.5t10.5 -41t17.5 -34.5t19.5 -28.5t24.5 -25t24.5 -19.5 t26 -16t23.5 -12l22 -12l17 -6v471q-84 -18 -136.5 -79.5t-52.5 -149.5zM618 72q92 23 148.5 94.5t56.5 177.5q0 41 -11 75t-23.5 55.5t-40 44t-41 30.5t-48 25.5t-41.5 21.5v-524z" />
<glyph unicode="%" horiz-adv-x="1820" d="M92 1034q0 145 98.5 242.5t243.5 97.5q139 0 226.5 -94t87.5 -236q0 -139 -96.5 -243.5t-233.5 -104.5q-147 0 -236.5 95.5t-89.5 242.5zM240 1008q0 -66 13 -120t55 -97t108 -43q70 0 113.5 54t57 117.5t13.5 131.5q0 272 -168 272q-76 0 -122 -55.5t-58 -118.5 t-12 -141zM459 -68l762 1493q43 -10 94 0l-762 -1493q-51 10 -94 0zM1059 311.5q0 145.5 98 244.5t244 99q139 0 226 -96t87 -237q0 -199 -172 -304q-74 -41 -158 -41q-145 0 -235 94.5t-90 240zM1206 289q0 -66 13.5 -120t55.5 -97t107 -43q53 0 92 29.5t57.5 79.5t27 97.5 t8.5 96.5q0 272 -168 272q-76 0 -122 -55t-58.5 -118.5t-12.5 -141.5z" />
<glyph unicode="&#x26;" horiz-adv-x="1478" d="M147 313q0 252 359 432l12 7q-51 76 -68.5 104.5t-43 93t-25.5 121.5q0 137 88 220t227 83q117 0 194 -57t77 -158q0 -61 -23.5 -116.5t-69 -102.5t-85 -79t-101.5 -73q29 -35 78 -101t91 -119.5t83 -98.5l109 -123q123 178 243 404q25 -41 78 -84q-139 -213 -276 -375 l256 -295q-82 8 -125 8l-117 -6q-74 109 -129 172q-180 -199 -442 -199q-172 0 -281 93t-109 249zM313 360q0 -129 87 -214t214 -85q74 0 152 36t112.5 63.5t59.5 52.5q-248 303 -385 489q-2 -2 -8 -5t-8 -5q-224 -142 -224 -332zM524 1126q0 -119 129 -295q209 150 209 316 q0 74 -46 123t-118 49q-84 0 -129 -54.5t-45 -138.5z" />
<glyph unicode="'" horiz-adv-x="569" d="M215 915v347q-6 86 9.5 124.5t60.5 38.5t59 -38.5t8 -124.5v-347q14 -123 -67 -122q-47 0 -61.5 28t-8.5 94z" />
<glyph unicode="(" horiz-adv-x="569" d="M127 672q0 504 326 860l41 -39q-236 -324 -236 -852q0 -223 53 -430q39 -154 183 -379l-41 -41q-174 201 -250 406t-76 475z" />
<glyph unicode=")" horiz-adv-x="569" d="M76 -168q143 225 182 379q53 207 53 430q0 528 -235 852l41 39q326 -356 325 -860q0 -270 -75.5 -475t-249.5 -406z" />
<glyph unicode="*" horiz-adv-x="909" d="M109 1174q41 47 59 104l258 -184l-29 315q61 -6 117 2l-31 -321l256 190q25 -55 62 -104l-289 -132l287 -126q-29 -43 -58 -103l-260 182l35 -317q-72 8 -119 0l29 311l-250 -182q-8 14 -23.5 41t-23.5 39l-12 20l286 133z" />
<glyph unicode="+" horiz-adv-x="1241" d="M104 455v131h451v448h131v-448h451v-131h-451v-455h-131v455h-451z" />
<glyph unicode="," horiz-adv-x="569" d="M94 -330l144 455q12 35 18 53.5t27.5 41t48.5 22.5q35 0 59.5 -20.5t24.5 -55.5q0 -37 -45 -109l-242 -401z" />
<glyph unicode="-" horiz-adv-x="681" d="M84 389v127h512v-127h-512z" />
<glyph unicode="." horiz-adv-x="569" d="M162 100q0 49 38 86t87 37t85 -36.5t36 -86.5q0 -51 -36 -87t-85 -36q-51 0 -88 36t-37 87z" />
<glyph unicode="/" horiz-adv-x="569" d="M-68 -209l584 1741q53 -8 105 0l-584 -1741q-42 8 -105 0z" />
<glyph unicode="0" d="M90 641q0 137 21.5 255t71.5 230.5t153.5 178t249.5 65.5q463 0 463 -682q0 -330 -130.5 -520.5t-345.5 -190.5q-483 0 -483 664zM258 684q0 -61 1 -106.5t8 -117t18.5 -123.5t35 -111.5t57.5 -96.5t85 -62.5t115 -25.5q303 0 303 647q0 172 -30 308.5t-99.5 225.5 t-169.5 85q-186 -8 -255 -158t-69 -465z" />
<glyph unicode="1" d="M193 1190q268 109 432 211l34 -10v-1397q-8 0 -36.5 3t-44.5 3q-2 0 -82 -6v1237l-15 6l-227 -123q-20 49 -61 76z" />
<glyph unicode="2" d="M90 0v31l168 168l123 127q182 188 242 270q133 188 133 412q0 291 -240 290q-94 0 -162.5 -61t-87.5 -156l-14 -6l-72 101q123 195 355 194q186 0 297.5 -88t111.5 -270q0 -207 -211 -430l-244 -260l-124 -132l-35 -38l10 -23q305 0 629 27q0 -8 -3 -36t-3 -42 q0 -4 6 -78h-879z" />
<glyph unicode="3" d="M123 43q10 27 24 125l13 8q121 -135 276.5 -135t242.5 101.5t87 258.5q0 133 -75 205t-208 72q-18 0 -53 -4t-45 -4q0 4 3 19.5t3 23.5t-3 23.5t-3 17.5q53 -4 78 -4q121 0 183.5 87t62.5 212q0 115 -57.5 186.5t-159.5 71.5q-74 0 -138.5 -47.5t-93.5 -116.5l-10 -6 l-51 110q37 41 115.5 82t185.5 41q152 0 270.5 -74.5t118.5 -218.5q0 -119 -73 -214t-204 -142q147 -12 243.5 -92t96.5 -223q0 -197 -149.5 -313t-370.5 -116q-172 0 -309 66z" />
<glyph unicode="4" d="M43 381v27q168 250 670 952q61 -6 65 -6q12 0 34 3t30 3v-862l188 8q-10 -66 0 -133l-188 8v-387q-8 0 -37 3t-45 3q-2 0 -82 -6v387h-635zM213 508l8 -10h461v657l-10 8q-57 -76 -123 -167t-108 -152.5t-119.5 -176t-108.5 -159.5z" />
<glyph unicode="5" d="M121 57l31 136l14 2q45 -72 126 -111t171 -39q143 0 224 110.5t81 268.5q0 319 -293 319q-119 0 -203 -67l-18 14v674l12 6h658l8 -16q-20 -82 -12 -150q-147 33 -277 33h-303v-457q98 49 219 49q168 0 283.5 -109.5t115.5 -279.5q0 -186 -140 -324.5t-369 -138.5 q-199 0 -328 80z" />
<glyph unicode="6" d="M119 559q0 367 168 589t436 222q61 0 92 -6l23 -72q-43 14 -97 15q-117 0 -207 -68t-137 -174.5t-70.5 -216t-23.5 -217.5q117 182 332 182q186 0 290.5 -103.5t104.5 -277.5q0 -199 -124 -327t-322 -128q-242 0 -353.5 164t-111.5 418zM303 375q0 -133 77 -233.5 t206 -100.5t195.5 110.5t66.5 266.5q0 143 -70.5 229t-185.5 88q-289 -16 -289 -360z" />
<glyph unicode="7" d="M162 -6l2 22q59 98 183 302t201 331t171 287t153 272l-8 9q-309 -6 -700 -33q0 8 3 42t3 52l-6 92h874l2 -59q-446 -735 -739 -1317q-8 0 -32.5 3t-37.5 3q-1 0 -69 -6z" />
<glyph unicode="8" d="M115 383q0 129 85 234.5t212 136.5v14q-25 6 -54.5 20.5t-72.5 45t-71 86t-28 127.5q0 152 118 237.5t274 85.5q172 0 272 -76q113 -86 113 -227q0 -100 -67 -182t-163 -109v-14q20 -4 48 -12.5t74 -34t82 -60t62.5 -95t26.5 -136.5q0 -203 -129 -325t-332 -122 t-326.5 103.5t-123.5 302.5zM295 385q0 -147 70.5 -245.5t212.5 -98.5q135 0 201.5 106.5t66.5 249.5q0 141 -67.5 233.5t-203.5 92.5q-131 0 -205.5 -101.5t-74.5 -236.5zM356 1024q0 -100 70 -176q51 -59 152 -60q111 0 172 95q43 59 43 178q0 104 -57.5 175t-160.5 71 q-106 0 -169 -93q-50 -69 -50 -190z" />
<glyph unicode="9" d="M92 934q0 201 126 318.5t333 117.5q156 0 259 -87t144 -214t41 -283q0 -350 -173 -579.5t-421 -229.5q-129 0 -161 27q-6 49 -43 105l22 8q86 -76 199 -76q96 0 184 79t141 218q70 182 66 387q-49 -88 -138 -137t-192 -49q-168 0 -277.5 107.5t-109.5 287.5zM272 946 q0 -135 63.5 -228t192.5 -93q125 0 202 100t77 227q4 156 -66.5 255.5t-195.5 99.5q-139 0 -206 -108t-67 -253z" />
<glyph unicode=":" horiz-adv-x="569" d="M162 100q0 49 38 86t87 37t85 -36.5t36 -86.5q0 -51 -36 -87t-85 -36q-51 0 -88 36t-37 87zM162 840q0 49 38 86t87 37t85 -37t36 -86q0 -51 -36 -87t-85 -36q-51 0 -88 36t-37 87z" />
<glyph unicode=";" horiz-adv-x="569" d="M94 -330l144 455q12 35 18 53.5t27.5 41t48.5 22.5q35 0 59.5 -20.5t24.5 -55.5q0 -37 -45 -109l-242 -401zM199 840q0 49 37.5 86t87 37t85 -37t35.5 -86q0 -51 -35.5 -87t-84.5 -36q-51 0 -88 36t-37 87z" />
<glyph unicode="&#x3c;" horiz-adv-x="1241" d="M100 465v110l1043 480v-127l-877 -408l877 -407v-127z" />
<glyph unicode="=" horiz-adv-x="1241" d="M104 256v131h1033v-131h-1033zM104 653v131h1033v-131h-1033z" />
<glyph unicode="&#x3e;" horiz-adv-x="1241" d="M98 -14v127l877 407l-877 408v127l1043 -480v-110z" />
<glyph unicode="?" horiz-adv-x="796" d="M160 1362q113 63 200 63q141 0 224.5 -71.5t83.5 -194.5q0 -86 -30 -148.5t-93 -131.5l-129 -142q-35 -39 -51.5 -59.5t-35 -58t-18.5 -74.5q0 -68 52.5 -102.5t121.5 -4.5l13 -8l-25 -57q-14 -8 -55 -8q-98 0 -167 64.5t-69 174.5q0 119 119 242l123 131 q111 115 111 205q0 78 -56.5 124t-134.5 46q-47 0 -95 -27t-77 -65zM252 100q0 49 38 86t87 37t85 -36.5t36 -86.5q0 -51 -36 -87t-85 -36q-51 0 -88 36t-37 87z" />
<glyph unicode="@" horiz-adv-x="1638" d="M102 682q0 313 216.5 528t537.5 215q297 0 488.5 -174t191.5 -407q0 -223 -149.5 -392t-303.5 -169q-86 0 -127 45t-47 102q-53 -51 -76.5 -70.5t-73.5 -43t-106 -23.5q-111 0 -192 86q-82 82 -82 211q0 170 135 314.5t307 144.5q139 0 193 -115l26 94h181l-148 -536 q-10 -41 -10 -50q0 -27 15.5 -47t41.5 -20q98 0 202.5 128t104.5 337q0 70 -31.5 147.5t-93 155.5t-175 129t-257.5 51q-283 0 -469 -176t-186 -451q0 -276 191.5 -450t476.5 -174q160 0 294 76.5t224 209.5h125q-94 -176 -272.5 -282.5t-381.5 -106.5q-322 0 -546 202 t-224 511zM561 528q0 -154 125 -153q96 0 187.5 174t91.5 293q0 51 -27 88t-82 37q-84 0 -154.5 -81t-105.5 -180.5t-35 -177.5z" />
<glyph unicode="A" horiz-adv-x="1366" d="M33 -6l639 1431h47l614 -1431q-8 0 -47 3t-59 3q-4 0 -109 -6q-109 311 -215 553h-520q-152 -381 -203 -553q-8 0 -34.5 3t-41.5 3q-3 0 -71 -6zM422 633h450l-227 524z" />
<glyph unicode="B" horiz-adv-x="1251" d="M195 0v1395h401q233 0 345 -64.5t112 -218.5q0 -137 -90.5 -232.5t-233.5 -129.5q66 -4 127.5 -21.5t119.5 -53.5t93 -99.5t35 -147.5q0 -219 -184 -346q-55 -39 -138.5 -58.5t-141.5 -22.5q-35 -2 -83 -2q-32 0 -70 1h-292zM375 76h194q152 0 248 89t96 228 q0 170 -110.5 239.5t-313.5 69.5h-114v-626zM375 778h56h62q13 0 53 2t61.5 7.5t52 13.5t57.5 20q158 74 157 248q0 139 -88 194.5t-260 55.5h-151v-541z" />
<glyph unicode="C" horiz-adv-x="1366" d="M78 702q0 336 218 529.5t554 193.5q223 0 440 -94q-25 -61 -43 -157l-14 -3q-39 51 -147.5 114t-243.5 63q-182 0 -312.5 -92.5t-190.5 -238t-60 -323.5q0 -293 152.5 -469t395.5 -176q100 0 203 37t150 68.5t82 60.5l-11 -129q-174 -117 -452 -117q-336 0 -528.5 197.5 t-192.5 535.5z" />
<glyph unicode="D" horiz-adv-x="1593" d="M205 0v1395h465q18 0 88 1q35 1 58.5 0.5t35.5 -0.5q25 -1 84 -4t90 -11.5t78 -21.5t85 -34.5t73 -52.5q219 -180 219 -512q0 -377 -258 -604q-82 -72 -196 -108t-198 -42t-225 -6h-399zM385 92q6 0 69.5 -4t79 -5t74.5 -2h36q32 0 48 1q25 2 75 5t81 10t68.5 18.5 t68.5 25.5q295 147 295 588q0 324 -145.5 458t-491.5 134q-47 0 -137 -4t-121 -4v-1221z" />
<glyph unicode="E" horiz-adv-x="1024" d="M182 0v1395h727q0 -6 -3 -27.5t-3 -34.5l6 -61q-78 14 -184 22l-205 4h-158v-514h318q35 0 96.5 5.5t85.5 5.5q-6 -49 -6 -54q0 -10 3 -29.5t3 -27.5q-25 0 -86 5t-96 5h-318v-598h28q87 0 343 8q92 2 189 19q0 -6 -3.5 -27.5t-3.5 -34.5l7 -61h-740z" />
<glyph unicode="F" horiz-adv-x="1024" d="M182 -6v1401h727q0 -6 -3 -27.5t-3 -34.5l6 -61q-78 14 -184 22l-205 4h-158v-514h318q35 0 96.5 5.5t85.5 5.5q-6 -49 -6 -54q0 -10 3 -29.5t3 -27.5q-25 0 -86 5t-96 5h-318v-700q-8 0 -40.5 3t-49.5 3q-4 0 -90 -6z" />
<glyph unicode="G" horiz-adv-x="1593" d="M131 694q0 348 222 539.5t577 191.5q139 0 261 -25.5t174 -48t87 -44.5q-18 -51 -47 -158h-23q-174 199 -460 199q-266 0 -428 -169t-162 -474q0 -309 157.5 -483.5t454.5 -174.5q186 0 320 70v526q86 -6 90 -6q16 0 49 3t41 3v-580q-272 -94 -557 -94 q-373 0 -564.5 198.5t-191.5 526.5z" />
<glyph unicode="H" horiz-adv-x="1593" d="M184 -6v1401q86 -6 90 -6q16 0 49 3t42 3v-588q369 -10 432 -10q68 0 430 10v588q86 -6 90 -6q16 0 49 3t41 3v-1401q-8 0 -41 3t-49 3q-4 0 -90 -6v704q-362 10 -430 11q-63 0 -432 -11v-704q-8 0 -41 3t-50 3q-4 0 -90 -6z" />
<glyph unicode="I" horiz-adv-x="569" d="M195 -6v1401q86 -6 90 -6q16 0 49 3t41 3v-1401q-8 0 -41 3t-49 3q-4 0 -90 -6z" />
<glyph unicode="J" horiz-adv-x="569" d="M-29 -227q66 2 114 25.5t74.5 58t42 87t19.5 99.5t4 109v1243q86 -6 90 -6q16 0 49 3t42 3v-1217v-20q0 -185 -107 -306q-113 -128 -311 -135z" />
<glyph unicode="K" horiz-adv-x="1251" d="M186 -6v1401q86 -6 90 -6q16 0 49 3t42 3v-633q0 -6 9 -6t20.5 5t21.5 13q37 29 108 100l504 521q80 -6 82 -6q14 0 44 3t36 3l-465 -447l-174 -176q74 -84 242 -272.5t256 -290.5l166 -205v-10q-10 0 -51.5 3t-61.5 3q-4 0 -115 -6q-76 111 -141 186l-447 522 q-4 4 -13 7.5t-15 3.5t-6 -4v-715q-8 0 -41 3t-50 3q-4 0 -90 -6z" />
<glyph unicode="L" horiz-adv-x="1024" d="M182 0v1395q86 -6 90 -6q16 0 49 3t41 3v-1299h28q87 0 343 8q63 2 195 19q0 -6 -3 -27.5t-3 -34.5l6 -61h-746z" />
<glyph unicode="M" horiz-adv-x="1820" d="M90 -6q43 268 112.5 758.5t84.5 642.5h53q344 -682 580 -1073q76 137 275.5 502.5t313.5 570.5h43q94 -891 166 -1401q-10 0 -44 3t-52 3q-4 0 -96 -6q-68 793 -105 1057q-387 -692 -536 -1035h-23l-112 232q-80 164 -414 803q-8 -70 -34 -286t-35 -310.5t-20 -233.5 t-11 -227q-6 0 -33 3t-39 3z" />
<glyph unicode="N" horiz-adv-x="1593" d="M205 -6v1401h80l972 -1055h21v1055q55 -6 57 -6q10 0 32 3t26 3v-1401h-62q-47 59 -106 125l-885 979h-21v-1104q-4 0 -25.5 3t-31.5 3q-2 0 -57 -6z" />
<glyph unicode="O" horiz-adv-x="1705" d="M86 694q0 330 216 530.5t542 200.5q150 0 285 -42t246.5 -122.5t178 -219t66.5 -316.5q0 -340 -217 -548t-563 -208q-340 0 -547 198.5t-207 526.5zM287 670q0 -299 159.5 -466t399.5 -167q123 0 226.5 48t168 123t107.5 167t59 177q13 68 13 127q0 15 -1 30 q0 285 -129 450q-76 96 -188.5 147.5t-237.5 51.5q-268 0 -422.5 -187.5t-154.5 -500.5z" />
<glyph unicode="P" d="M162 -6v1401h366q297 0 413 -75t116 -261q0 -180 -106.5 -276.5t-332.5 -141.5q-41 -8 -95 -9h-27q-41 0 -85 2q-58 3 -69 3v-643q-8 0 -41 3t-49 3q-4 0 -90 -6zM342 717q43 -5 93.5 -5t109.5 5q152 14 237.5 104t85.5 228q0 111 -57 182.5t-174 81.5q-74 7 -155 6 q-68 0 -140 -4v-598z" />
<glyph unicode="Q" horiz-adv-x="1705" d="M86 696q0 315 218 522t540 207q336 0 556 -184t220 -512q0 -289 -150.5 -465t-388.5 -258q33 -25 203 -155t256 -191q-117 -51 -160 -84q-16 25 -185 173.5t-277 225.5q-6 0 -15.5 -2t-17.5 -3t-17 -1q-350 2 -566 192.5t-216 534.5zM287 670q0 -311 161.5 -472 t397.5 -161q135 0 241.5 54t167 133t100.5 176.5t52 173t12 135.5q0 285 -129 448q-76 96 -188.5 148.5t-237.5 52.5q-145 0 -258.5 -56.5t-181.5 -153.5t-102.5 -218t-34.5 -260z" />
<glyph unicode="R" horiz-adv-x="1251" d="M184 -6v1401h434q233 0 344 -77t111 -235q0 -164 -121 -261t-299 -128l422 -534l99 -115l38 -51q-10 0 -53 3t-65 3q-6 0 -117 -6q-82 115 -129 178l-242 313l-164 193h-77v-684q-8 0 -41 3t-50 3q-4 0 -90 -6zM365 756q52 -3 98 -4q93 0 166 14q117 25 189.5 101.5 t72.5 191.5q0 221 -225 258q-42 7 -129 7q-71 0 -172 -5v-563z" />
<glyph unicode="S" horiz-adv-x="1024" d="M92 88q25 70 39 182h21q66 -106 142.5 -159.5t188.5 -53.5q123 0 204 88t81 211q0 78 -36 133.5t-92 87t-125 59.5t-136.5 57.5t-123.5 68.5t-92 107.5t-36 162.5q0 188 130 290.5t325 102.5q182 0 292 -98q-18 -41 -55 -168h-20q-70 178 -254 178q-109 0 -183.5 -66.5 t-74.5 -172.5q0 -88 48 -149.5t119.5 -92.5t154.5 -66.5t155 -71.5t120 -107.5t48 -174.5q0 -213 -145.5 -340t-360.5 -127q-84 0 -184.5 33t-149.5 86z" />
<glyph unicode="T" d="M41 1272q0 6 2 19.5t3 23.5t1 18q0 12 -3 34t-3 28h1057q0 -6 -3 -27.5t-3 -34.5l6 -61q-205 25 -428 24v-1306q-8 0 -41 3t-49 3q-4 0 -91 -6v1306q-215 1 -448 -24z" />
<glyph unicode="U" horiz-adv-x="1593" d="M193 575v820q86 -6 90 -6q16 0 49 3t41 3v-785q0 -283 99 -415t353 -132q442 0 443 568v764q55 -6 57 -6q10 0 31.5 3t25.5 3v-815q0 -297 -160.5 -454t-437.5 -157q-287 0 -444 144q-88 78 -116.5 193t-30.5 269z" />
<glyph unicode="V" horiz-adv-x="1366" d="M49 1395q92 -6 98 -6q18 0 55.5 3t45.5 3q27 -63 76 -199l137 -358l252 -621h18q115 246 115 248l215 555l123 342l14 33q74 -6 76 -6q12 0 39.5 3t34.5 3q-57 -109 -299 -676t-293 -725q-2 0 -17.5 3t-23.5 3l-43 -6q-129 266 -357.5 797.5t-265.5 603.5z" />
<glyph unicode="W" horiz-adv-x="2048" d="M25 1395q92 -6 96 -6q16 0 51 3t43 3q8 -25 61 -217l121 -416l172 -541h19q342 979 397 1174q55 -6 59 -6q10 0 32 3t26 3q16 -63 70.5 -225t150.5 -446t168 -503h18q41 104 82 234l240 772l49 168q68 -6 72 -6q12 0 38.5 3t32.5 3q-57 -133 -102 -262l-391 -1139 q-6 0 -30.5 3t-37.5 3l-67 -6q-10 35 -74 229.5t-155 476t-142 443.5h-16l-398 -1149q-6 0 -30.5 3t-36.5 3q-2 0 -70 -6q-4 16 -34.5 117.5t-47.5 152.5z" />
<glyph unicode="X" horiz-adv-x="1251" d="M74 -6q37 55 121 176t127 186l227 342q-35 55 -114 186.5t-122 200.5l-202 310q104 -6 110 -6q20 0 60.5 3t50.5 3q35 -57 104 -176l217 -373q25 41 154 237.5t190 311.5q74 -6 76 -6q14 0 43 3t33 3q-18 -18 -35 -41l-313 -436l-101 -152l476 -772q-8 0 -49.5 3t-63.5 3 q-2 0 -113 -6q-164 322 -354 622q-190 -287 -371 -622q-4 0 -32.5 3t-42.5 3q-2 0 -76 -6z" />
<glyph unicode="Y" horiz-adv-x="1251" d="M41 1395q111 -6 115 -6q20 0 61 3t51 3q59 -119 199.5 -366t189.5 -320q45 51 392 686q74 -6 79 -6q14 0 44 3t36 3q-76 -96 -145 -205l-225 -363q-68 -102 -115 -204v-629q-8 0 -41 3t-49 3q-4 0 -90 -6v590z" />
<glyph unicode="Z" horiz-adv-x="1251" d="M35 0v45l596 832q223 322 291 426v4l-234 -2q-104 0 -569 -33q0 6 2 19.5t3 23.5t1 18q0 12 -3 34t-3 28h1077v-39q-479 -621 -893 -1262v-4h311q205 4 574 33q0 -6 -3 -27.5t-3 -34.5l6 -61h-1153z" />
<glyph unicode="[" horiz-adv-x="681" d="M276 -238v1770h322v-59h-199v-1651h199v-60h-322z" />
<glyph unicode="\" horiz-adv-x="1024" d="M68 1532q66 -10 127 0l761 -1532q-68 10 -127 0z" />
<glyph unicode="]" horiz-adv-x="681" d="M84 -178h199v1651h-199v59h322v-1770h-322v60z" />
<glyph unicode="^" horiz-adv-x="1241" d="M104 563l449 832h135l447 -832h-144l-370 668l-373 -668h-144z" />
<glyph unicode="_" horiz-adv-x="1024" d="M0 -250h1024v-78h-1024v78z" />
<glyph unicode="`" horiz-adv-x="681" d="M45 1391q8 25 32.5 37t51.5 6q20 -8 27 -15q14 -10 77 -73l259 -256h-72l-322 200q-45 35 -51 45q-12 27 -2 56z" />
<glyph unicode="a" horiz-adv-x="1024" d="M94 227q0 68 23.5 118t52.5 78t88 49.5t99 29.5t116 20q133 23 175 45.5t42 91.5q0 115 -62.5 177.5t-176.5 62.5q-98 0 -164 -48t-80 -93h-23v114q164 113 330 113q332 0 332 -344v-475v-10q0 -29 1 -41.5t6 -27.5t17.5 -18t34 -4.5t56.5 7.5v-45q-37 -16 -62 -21 q-34 -6 -62 -6q-132 0 -149 125l-18 -19q-129 -129 -303 -129q-113 0 -193 69.5t-80 180.5zM262 256q0 -94 52.5 -143.5t148.5 -49.5q86 0 164 78q55 55 55 64v299l-72 -15q-8 -2 -48 -9t-53 -10t-50 -11t-52.5 -16.5t-44 -20.5t-42 -28.5t-30 -36t-22.5 -45t-6 -56.5z" />
<glyph unicode="b" d="M133 0v1532q80 -6 82 -6q16 0 45 3t37 3v-758q143 211 354 211q201 0 307.5 -142.5t106.5 -332.5q0 -217 -126 -375t-337 -158q-195 0 -291 146q-29 -23 -80 -69t-59 -54h-39zM293 418q0 -168 78 -271.5t209 -103.5q82 0 144 44t95 114.5t49.5 146.5t16.5 154 q0 176 -71 285.5t-214 111.5q-84 0 -145.5 -40t-96 -109.5t-50 -152.5t-15.5 -179z" />
<glyph unicode="c" horiz-adv-x="1024" d="M84 485q0 233 147.5 366.5t382.5 133.5q186 0 324 -84l-47 -135h-17q-41 55 -55 68q-72 82 -203 81q-168 0 -260 -122.5t-92 -296.5q0 -199 103.5 -324t269.5 -125q82 0 145.5 33t137.5 100l12 -6l-10 -94q-139 -102 -314 -103q-248 0 -386 142.5t-138 365.5z" />
<glyph unicode="d" d="M72 473q0 217 120.5 364.5t319.5 147.5q205 0 322 -199v746q80 -6 81 -6q16 0 45 3t37 3v-1538q-8 0 -36.5 3t-45.5 3q-2 0 -81 -6v196q-125 -213 -353 -213q-182 0 -295.5 127t-113.5 369zM252 444q0 -72 14.5 -137t45 -124.5t87 -95.5t133.5 -36q84 0 146.5 44 t94.5 116t46.5 146.5t14.5 152.5q0 96 -24 179t-89.5 147.5t-163.5 64.5q-305 0 -305 -457z" />
<glyph unicode="e" horiz-adv-x="1024" d="M70 481q0 221 123.5 362.5t345.5 141.5q184 0 307 -130q110 -116 110 -322q0 -24 -2 -50q-209 6 -415 6h-289q-2 -24 -2 -46q0 -150 82 -257q94 -123 274 -123q156 0 303 142l-2 -107q-170 -121 -352 -121q-215 0 -349 135.5t-134 368.5zM250 565h545q-8 356 -256 357 q-133 0 -206 -105t-83 -252z" />
<glyph unicode="f" horiz-adv-x="569" d="M39 895q5 18 5 37.5t-5 40.5h141l4 16q12 98 40 188.5t76 179.5t130 138q66 39 146 39q20 0 40 -2q-11 -57 -11 -125q0 -19 1 -39l-10 -8l-41 20q-29 10 -72 11q-173 0 -172 -210q0 -86 29 -208h209q-5 -20 -5 -40t5 -38h-205v-901q-8 0 -36.5 3t-45.5 3q-2 0 -82 -6v901 h-141z" />
<glyph unicode="g" horiz-adv-x="1024" d="M74 -240q0 211 213 248v17q-125 23 -125 165q0 68 35.5 107t105.5 70q-199 92 -199 292q0 158 100 246q91 81 278 81q17 0 36 -1l285 -10q28 -3 57 -3q44 0 90 7v-78l-225 19q141 -111 141 -271t-121.5 -238.5t-314.5 -78.5q-2 0 -16.5 1t-24.5 0t-27.5 -3t-30 -8.5 t-24.5 -16.5t-18 -28.5t-6 -43.5q0 -59 47 -78.5t149 -19.5h131q354 0 355 -272q0 -180 -143.5 -292t-377.5 -112q-90 0 -170.5 29t-140 100.5t-59.5 171.5zM199 -231q0 -121 80.5 -184.5t214.5 -63.5q129 0 226 64.5t97 197.5q0 76 -23.5 125t-71.5 69.5t-92 26.5t-114 6 h-5q-312 1 -312 -241zM260 662v-15q0 -105 55 -182q59 -82 168 -82q106 0 167 79t61 189q0 279 -219 279q-109 0 -170.5 -74.5t-61.5 -193.5z" />
<glyph unicode="h" d="M158 -6v1538q80 -6 82 -6q16 0 44.5 3t37.5 3v-746q115 199 329 199q174 0 252 -100.5t78 -298.5v-592q-8 0 -37 3t-45 3q-2 0 -82 -6v545q0 178 -50 259t-177 81q-268 0 -268 -328v-557q-8 0 -37 3t-45 3q-2 0 -82 -6z" />
<glyph unicode="i" horiz-adv-x="569" d="M180 1323q0 43 31 73.5t74 30.5q41 0 72.5 -30.5t31.5 -73.5t-31.5 -73.5t-72.5 -30.5q-43 0 -74 30.5t-31 73.5zM203 -6v979q80 -6 82 -6q16 0 44.5 3t37.5 3v-979q-8 0 -37 3t-45 3q-2 0 -82 -6z" />
<glyph unicode="j" horiz-adv-x="569" d="M0 -475l18 -4q10 -2 20 -2q76 0 130 131q47 117 47 342v981q80 -6 82 -6q16 0 45 3t37 3v-989q0 -145 -24.5 -250t-104.5 -183q-106 -93 -221 -92h-15zM193 1323q0 43 30.5 73.5t73.5 30.5q41 0 72.5 -30.5t31.5 -73.5t-31.5 -73.5t-72.5 -30.5q-43 0 -73.5 30.5 t-30.5 73.5z" />
<glyph unicode="k" horiz-adv-x="1024" d="M162 -6v1538q80 -6 82 -6q16 0 44.5 3t37.5 3v-918q0 -6 -1 -19t-1 -20.5t3 -15.5t9 -12q5 -3 11 -3q44 0 167 124l127 129l160 176q80 -6 82 -6q14 0 41.5 3t38.5 3v-15q-4 -4 -171 -146t-280 -249q55 -63 223 -258.5t258 -300.5v-10q-12 0 -47 3t-53 3q-4 0 -102 -6 q-86 113 -392 461q-29 33 -47 33q-27 0 -26 -76v-418q-8 0 -37 3t-45 3q-2 0 -82 -6z" />
<glyph unicode="l" horiz-adv-x="569" d="M203 -6v1538q80 -6 82 -6q16 0 44.5 3t37.5 3v-1538q-8 0 -37 3t-45 3q-2 0 -82 -6z" />
<glyph unicode="m" horiz-adv-x="1705" d="M145 -6v979q80 -6 82 -6q16 0 45 3t37 3v-176q109 188 303 188q102 0 185.5 -53t113.5 -150q121 203 322 203q180 0 255 -99.5t75 -299.5v-592q-8 0 -37 3t-45 3q-2 0 -82 -6v545q0 61 -4 106t-18.5 91t-38 76t-66.5 48.5t-101 18.5q-236 0 -235 -332v-553q-8 0 -37 3 t-45 3q-2 0 -82 -6v600q0 145 -52 215t-165 70q-143 0 -194.5 -78t-51.5 -211v-596q-8 0 -36.5 3t-45.5 3q-2 0 -82 -6z" />
<glyph unicode="n" d="M158 -6v979q80 -6 82 -6q16 0 44.5 3t37.5 3v-187q115 199 329 199q176 0 253 -96t77 -303v-592q-8 0 -37 3t-45 3q-2 0 -82 -6v545q0 164 -47 252t-180 88q-152 0 -210 -102.5t-58 -307.5v-475q-8 0 -37 3t-45 3q-2 0 -82 -6z" />
<glyph unicode="o" d="M72 492q0 219 148.5 356t371.5 137q213 0 344 -136t131 -364q0 -209 -135 -358.5t-377 -149.5q-213 0 -355 144q-129 130 -130 330q1 20 2 41zM252 461q0 -172 79 -296t240 -124q84 0 149.5 47t99.5 121t50.5 147.5t16.5 139.5q0 102 -24.5 193t-95.5 162t-177 71 q-94 0 -163 -41t-104.5 -110t-53 -145.5t-17.5 -164.5z" />
<glyph unicode="p" d="M135 -530v1503q80 -6 82 -6q16 0 45 3t37 3v-207h4l26 51q7 14 38.5 54t63.5 58.5t90.5 37t127.5 18.5q190 0 301 -137t111 -332q0 -250 -122 -394.5t-321 -144.5q-211 0 -315 197h-4v-704q-8 0 -37 3t-45 3q-2 0 -82 -6zM299 457q0 -174 76 -284t225 -110q145 0 213 124 t68 321q0 174 -65.5 290.5t-217.5 116.5q-84 0 -146.5 -44t-93 -115.5t-45 -145t-14.5 -153.5z" />
<glyph unicode="q" d="M74 483q0 219 108.5 360.5t300.5 141.5q145 0 230.5 -72.5t115.5 -150.5h5v211q80 -6 81 -6q16 0 45 3t37 3v-1503q-8 0 -36.5 3t-45.5 3q-2 0 -81 -6v700h-5q-94 -193 -315 -193q-209 0 -324.5 146.5t-115.5 359.5zM254 512q0 -449 305 -449q129 0 200.5 116t74.5 280 q-2 193 -79 324.5t-218 131.5q-283 0 -283 -403z" />
<glyph unicode="r" horiz-adv-x="681" d="M162 -6v979q80 -6 82 -6q16 0 44.5 3t37.5 3v-205l10 25q123 193 258 192q41 0 63 -10l-28 -172q-8 2 -42 17.5t-55 15.5q-86 0 -131 -52q-49 -57 -62 -110t-13 -150v-530q-8 0 -37 3t-45 3q-2 0 -82 -6z" />
<glyph unicode="s" horiz-adv-x="796" d="M86 43q37 111 43 150h16q39 -63 103.5 -107.5t132.5 -44.5q78 0 139.5 53t61.5 133q0 76 -50.5 118t-121 60.5t-141 40t-121 80t-50.5 156.5q0 143 95.5 223t238.5 80t232 -53q-31 -70 -50 -146h-18q-20 53 -70.5 94.5t-103.5 41.5q-80 0 -133 -45.5t-53 -124.5 q0 -72 50 -115t120.5 -64.5t141 -45t121 -80t50.5 -146.5q0 -154 -113.5 -239t-263.5 -85q-147 0 -256 66z" />
<glyph unicode="t" horiz-adv-x="569" d="M20 895q4 19 4.5 38.5t-4.5 39.5h127v203l164 63v-266h217q-5 -23 -5 -42.5t5 -35.5h-217v-514v-43v-49q0 -14 1 -48t6.5 -50.5t11.5 -43t18 -41t27.5 -30t38 -21.5t49.5 -6q20 0 92 14v-49q-100 -37 -172 -37q-125 0 -184 72q-52 63 -53 208q0 20 1 42v596h-127z" />
<glyph unicode="u" d="M141 371v602q80 -6 82 -6q16 0 45 3t37 3v-553q0 -170 57.5 -256t190.5 -86q98 0 157.5 55t77 123t17.5 152v565q80 -6 82 -6q16 0 45 3t37 3v-979q-8 0 -37 3t-45 3q-2 0 -82 -6v176q-100 -193 -326 -193q-172 0 -255 94.5t-83 299.5z" />
<glyph unicode="v" horiz-adv-x="1024" d="M41 973q86 -6 92 -6q16 0 48 3t42 3q94 -311 305 -789q37 53 39 58l123 288l164 443q61 -6 66 -6q12 0 35.5 3t29.5 3q-289 -602 -418 -979q-6 0 -28.5 3t-32.5 3q-2 0 -64 -6q-184 498 -401 979z" />
<glyph unicode="w" horiz-adv-x="1593" d="M35 973q86 -6 90 -6q16 0 48 3t42 3q127 -436 260 -760q61 131 147.5 361.5t139.5 398.5q49 -6 53 -6q10 0 28.5 3t24.5 3q102 -397 262 -762q248 588 302 762q61 -6 65 -6q12 0 33.5 3t30.5 3q-76 -147 -202 -439t-210 -540q-8 0 -27.5 3t-27.5 3l-56 -6 q-94 350 -252 743q-115 -225 -278 -743q-4 0 -24.5 3t-30.5 3l-56 -6q-186 569 -362 979z" />
<glyph unicode="x" horiz-adv-x="1024" d="M59 973l105 -6q20 0 57 3t47 3q43 -76 127 -196t137 -185l115 147l172 234q68 -6 70 -6q14 0 39.5 3t32.5 3q-201 -215 -381 -441l383 -518v-20q-10 0 -44 3t-53 3q-4 0 -96 -6q-127 211 -289 422q-195 -256 -295 -422q-6 0 -27.5 3t-33.5 3l-62 -6v20q252 313 369 463z " />
<glyph unicode="y" horiz-adv-x="1024" d="M53 973q92 -6 99 -6q18 0 52 3t44 3q117 -358 305 -760q131 270 307 760l68 -6q12 0 35.5 3t29.5 3q-53 -117 -172 -379t-180 -399.5t-150.5 -343t-158.5 -381.5q-8 0 -33 3t-37 3q-2 0 -69 -6q227 444 274 532z" />
<glyph unicode="z" horiz-adv-x="1024" d="M45 0v18q285 350 653 865v6q-158 0 -548 -31q6 43 6 51q0 10 -3 28.5t-3 25.5h784v-19l-637 -862v-6q180 0 623 30q0 -6 -3.5 -24.5t-3.5 -28.5q0 -4 7 -53h-875z" />
<glyph unicode="{" horiz-adv-x="681" d="M119 645q92 27 123.5 79t31.5 157v364q0 174 75 231.5t243 55.5q-96 -25 -133 -84t-37 -174v-363q0 -121 -33 -180t-133 -86q102 -27 134 -92.5t32 -194.5v-340q0 -111 39 -174t131 -82q-178 -4 -248 58.5t-70 249.5v333q0 111 -29.5 162t-125.5 80z" />
<glyph unicode="|" horiz-adv-x="681" d="M274 0v1532h132v-1532h-132z" />
<glyph unicode="}" horiz-adv-x="681" d="M90 -238q92 18 131 81t39 173v342q0 127 32 192.5t134 92.5q-100 27 -133 87.5t-33 180.5v363q0 113 -37 173t-133 85q168 0 243 -57.5t75 -231.5v-364q0 -102 31.5 -155.5t123.5 -80.5q-96 -27 -125.5 -78t-29.5 -162v-333q0 -186 -70 -249t-248 -59z" />
<glyph unicode="~" horiz-adv-x="1241" d="M104 426q61 109 127 173.5t164 64.5q76 0 240 -73t215 -73q66 0 123 53.5t92 122.5l72 -82q-119 -223 -289 -223q-57 0 -277 90q-131 53 -178 53q-39 0 -71.5 -15t-61.5 -50t-43 -55.5t-41 -67.5z" />
<glyph unicode="&#xa9;" horiz-adv-x="1536" d="M41 696q0 301 212 515t513 214q303 0 517 -213t214 -516q0 -301 -214 -514t-517 -213q-301 0 -513 213t-212 514zM154 696q0 -254 180 -439t432 -185t435 185t183 439q0 256 -182 441.5t-436 185.5q-252 0 -432 -186.5t-180 -440.5zM340 700.5q0 188.5 130 296t329 107.5 q137 0 262 -53q-14 -35 -25 -95h-8q-18 27 -83.5 56.5t-149.5 29.5q-145 0 -230.5 -98t-85.5 -248q0 -160 88 -252t219 -92q117 0 265 82l-13 -78q-100 -66 -268 -65q-201 0 -315.5 110.5t-114.5 299z" />
<glyph unicode="&#xab;" horiz-adv-x="1024" d="M199 459l258 379q33 -39 75 -54l-229 -323l219 -338q-49 -14 -78 -53zM492 459l258 379q33 -39 75 -54l-229 -323l219 -338q-49 -14 -78 -53z" />
<glyph unicode="&#xad;" horiz-adv-x="681" d="M84 389v127h512v-127h-512z" />
<glyph unicode="&#xae;" horiz-adv-x="1536" d="M39 698q0 301 214 514t517 213q301 0 513 -213t212 -514q0 -303 -212 -516t-513 -213q-303 0 -517 213t-214 516zM152 698q0 -256 182 -441t436 -185q252 0 432 185t180 441q0 254 -180 439.5t-432 185.5t-435 -185.5t-183 -439.5zM500 307v783h258q270 0 270 -175 q0 -92 -71.5 -145t-178.5 -72l252 -299l57 -63l23 -29q-4 0 -30.5 3t-39.5 3q-2 0 -69 -6q-27 35 -76 101l-145 174l-97 106h-47v-381q-2 0 -22.5 3t-30.5 3q-4 0 -53 -6zM606 750h133q84 0 133.5 42t49.5 109q0 121 -138 127h-178v-278z" />
<glyph unicode="&#xbb;" horiz-adv-x="1024" d="M199 123l229 323l-219 338q49 14 78 54l245 -389l-258 -379q-32 39 -75 53zM492 123l229 323l-219 338q49 14 78 54l245 -389l-258 -379q-32 39 -75 53z" />
<glyph unicode="&#x2c6;" horiz-adv-x="1241" d="M104 563l449 832h135l447 -832h-144l-370 668l-373 -668h-144z" />
<glyph unicode="&#x400;" horiz-adv-x="1024" d="M135 1850q8 25 32.5 37t51.5 6q20 -8 27 -15q14 -10 77 -73l259 -256h-72l-322 200q-45 35 -51 45q-12 27 -2 56zM182 0v1395h727q0 -6 -3 -27.5t-3 -34.5l6 -61q-78 14 -184 22l-205 4h-158v-514h318q35 0 96.5 5.5t85.5 5.5q-6 -49 -6 -54q0 -10 3 -29.5t3 -27.5 q-25 0 -86 5t-96 5h-318v-598q63 -2 371 8q92 2 189 19q0 -6 -3.5 -27.5t-3.5 -34.5l7 -61h-740z" />
<glyph unicode="&#x401;" horiz-adv-x="1024" d="M182 0v1395h727q0 -6 -3 -27.5t-3 -34.5l6 -61q-78 14 -184 22l-205 4h-158v-514h318q35 0 96.5 5.5t85.5 5.5q-6 -49 -6 -54q0 -10 3 -29.5t3 -27.5q-25 0 -86 5t-96 5h-318v-598q63 -2 371 8q92 2 189 19q0 -6 -3.5 -27.5t-3.5 -34.5l7 -61h-740zM276 1644.5 q0 36.5 28 65.5t67 29t66.5 -28t27.5 -66.5t-28.5 -66.5t-65.5 -28t-66 29t-29 65.5zM678 1644.5q0 36.5 27.5 65.5t66.5 29t66.5 -29t27.5 -65.5t-28.5 -65.5t-65.5 -29t-65.5 29t-28.5 65.5z" />
<glyph unicode="&#x402;" horiz-adv-x="1705" d="M41 1272q0 6 2 19.5t3 23.5t1 18q0 12 -3 34t-3 28h1057q0 -6 -3 -27.5t-3 -34.5l6 -61q-205 25 -428 24v-571q233 104 438 104q197 0 324 -91t127 -279v-281q0 -205 -110 -329.5t-308 -131.5l-17 56q66 2 114 25.5t74.5 58t42 87t19.5 99.5t4 109v278q0 145 -85 213 t-228 68q-205 0 -395 -86v-631q-49 6 -90 6q-47 0 -91 -6v1302q-215 1 -448 -24z" />
<glyph unicode="&#x403;" horiz-adv-x="985" d="M184 -4v1399h727q0 -6 -3 -27.5t-3 -34.5l6 -61q-76 14 -184 22l-205 4h-157v-1302q-66 4 -91 4q-33 0 -90 -4zM365 1511l256 256l21 22l30 30q6 4 16 13t19.5 15t19.5 8q25 6 49.5 -6t32.5 -37q16 -37 -2 -55q-6 -16 -51 -45l-322 -201h-69z" />
<glyph unicode="&#x404;" horiz-adv-x="1366" d="M78 702q0 336 218 529.5t554 193.5q223 0 440 -94q-25 -61 -43 -157l-14 -3q-39 51 -147.5 114t-243.5 63q-246 0 -390.5 -159t-168.5 -405h567q31 0 91 5.5t91 5.5q0 -8 -3 -25.5t-3 -28.5q0 -8 3 -26.5t3 -30.5q-31 0 -91 5t-91 5h-571q0 -293 152.5 -469t395.5 -176 q100 0 203 37t150 68.5t82 60.5l-11 -129q-174 -117 -452 -117q-336 0 -528.5 197.5t-192.5 535.5z" />
<glyph unicode="&#x405;" horiz-adv-x="1024" d="M92 88q25 70 39 182h21q66 -106 142.5 -159.5t188.5 -53.5q123 0 204 88t81 211q0 78 -36 133.5t-92 87t-125 59.5t-136.5 57.5t-123.5 68.5t-92 107.5t-36 162.5q0 188 130 290.5t325 102.5q182 0 292 -98q-18 -41 -55 -168h-20q-70 178 -254 178q-109 0 -183.5 -66.5 t-74.5 -172.5q0 -88 48 -149.5t119.5 -92.5t154.5 -66.5t155 -71.5t120 -107.5t48 -174.5q0 -213 -145.5 -340t-360.5 -127q-84 0 -184.5 33t-149.5 86z" />
<glyph unicode="&#x406;" horiz-adv-x="569" d="M195 -6v1401q86 -6 90 -6q16 0 49 3t41 3v-1401q-8 0 -41 3t-49 3q-4 0 -90 -6z" />
<glyph unicode="&#x407;" horiz-adv-x="569" d="M-10 1644.5q0 36.5 27.5 65.5t66.5 29t66.5 -28t27.5 -66.5t-28.5 -66.5t-65.5 -28t-65.5 29t-28.5 65.5zM195 -6v1401q86 -6 90 -6q16 0 49 3t41 3v-1401q-8 0 -41 3t-49 3q-4 0 -90 -6zM391 1644.5q0 36.5 27.5 65.5t66.5 29t67 -29t28 -65.5t-29 -65.5t-65.5 -29 t-65.5 29t-29 65.5z" />
<glyph unicode="&#x408;" horiz-adv-x="569" d="M-29 -227q66 2 114 25.5t74.5 58t42 87t19.5 99.5t4 109v1243q86 -6 90 -6q16 0 49 3t42 3v-1217q6 -199 -107 -326.5t-311 -134.5z" />
<glyph unicode="&#x409;" horiz-adv-x="1896" d="M12 -6q61 117 310 682t299 719q434 -2 464 0v-615h187q293 0 410.5 -82t117.5 -272q0 -180 -106.5 -276.5t-331.5 -141.5q-27 -6 -79 -8t-115 -2h-115q-53 0 -99.5 1t-48.5 1v1292q-53 4 -117 4q-55 0 -104 -4q-262 -567 -522 -1298q-74 6 -76 6q-12 0 -40 -3t-34 -3z M1085 84h203q152 14 238 104.5t86 227.5q0 113 -58.5 192.5t-173.5 89.5q-23 2 -295 2v-616z" />
<glyph unicode="&#x40a;" horiz-adv-x="2084" d="M184 -6v1401q86 -6 90 -6q16 0 49 3t42 3v-588q25 0 153.5 -5t210.5 -5q190 0 365 10v588q43 -6 90 -6q12 0 27.5 1t34 3t28.5 2v-607h186q291 0 410 -86t119 -276q0 -180 -106.5 -276.5t-332.5 -141.5q-27 -6 -79 -8t-114 -2h-116q-53 0 -99 1t-48 1v698 q-283 10 -365 10.5t-209 -5t-155 -5.5v-704q-8 0 -41 3t-50 3q-4 0 -90 -6zM1274 84h203q152 14 237.5 104.5t85.5 227.5q0 113 -58.5 189.5t-172.5 86.5q-88 8 -295 8v-616z" />
<glyph unicode="&#x40b;" horiz-adv-x="1705" d="M41 1272q0 6 2 19.5t3 23.5t1 18q0 12 -3 34t-3 28h1057q0 -6 -3 -27.5t-3 -34.5l6 -61q-205 25 -428 24v-571q233 104 438 104q197 0 324 -88t127 -262v-485q-86 6 -91 6q-16 0 -49 -3t-41 -3v457q0 131 -86 195.5t-227 64.5q-205 0 -395 -86v-631q-49 6 -90 6 q-47 0 -91 -6v1302q-215 1 -448 -24z" />
<glyph unicode="&#x40c;" horiz-adv-x="1251" d="M184 -6v1401q86 -6 90 -6q16 0 49 3t42 3v-633q0 -6 9 -6t20.5 5t21.5 13q37 29 108 100l504 521q80 -6 82 -6q14 0 44 3t36 3l-465 -447l-174 -176q74 -84 242 -272.5t256 -290.5l165 -205v-10q-10 0 -51 3t-61 3q-4 0 -115 -6q-76 111 -141 186l-447 522q-4 4 -13 7.5 t-15 3.5t-6 -4v-715q-8 0 -41 3t-50 3q-4 0 -90 -6zM498 1511l256 256q0 2 20.5 21.5t30.5 30.5q6 4 16 13t19.5 15t19.5 8q25 6 49.5 -6t32.5 -37q16 -37 -2 -55q-6 -16 -51 -45l-322 -201h-69z" />
<glyph unicode="&#x40d;" horiz-adv-x="1593" d="M385 1850q8 25 32.5 37t51.5 6q20 -8 27 -15q14 -10 77 -73l259 -256h-72l-322 200q-45 35 -51 45q-12 27 -2 56zM184 -6v1401q20 -6 90 -6q10 0 91 6v-1069h20q262 281 422 465q90 104 218 254.5t210 248.5l82 101h90v-1401q-55 6 -90 6q-29 0 -90 -6v1118h-21 q-217 -231 -438 -489q-180 -209 -340 -403.5t-178 -225.5h-66z" />
<glyph unicode="&#x40e;" horiz-adv-x="1327" d="M12 1395q74 -6 127 -6q2 0 107 6q229 -473 493 -860h19q279 522 420 860q35 -6 69 -6q12 0 40 3t34 3q-358 -651 -500.5 -938t-193.5 -463q-61 6 -70 6q-43 0 -92 -6q106 168 188 346q-244 430 -641 1055zM403 1698l48 35q86 -143 266 -144q178 0 268 144l49 -33 q-98 -209 -323 -209q-109 0 -190 59.5t-118 147.5z" />
<glyph unicode="&#x40f;" horiz-adv-x="1593" d="M184 0v1401q41 -6 90 -6q47 0 91 6v-1299q393 -6 426 -6q8 0 426 6v1299q33 -6 90 -6q45 0 90 6v-1401h-516v-154q-8 0 -41 3.5t-49 3.5q-4 0 -91 -7v154h-516z" />
<glyph unicode="&#x410;" horiz-adv-x="1327" d="M12 -6l639 1431h47l615 -1431q-8 0 -47 3t-60 3q-4 0 -108 -6q-109 311 -215 553h-521q-152 -381 -202 -553q-8 0 -35 3t-41 3q-4 0 -72 -6zM401 633h451l-227 524z" />
<glyph unicode="&#x411;" horiz-adv-x="1214" d="M186 0v1395h830q-6 -23 -6 -62q0 -35 6 -61q-113 23 -185 22l-245 4h-219v-518h188q295 0 422 -84t127 -272q0 -184 -125 -297t-334 -125q-31 -2 -459 -2zM367 84h204q152 0 247 95t95 235q0 111 -66.5 192.5t-182.5 91.5q-23 2 -297 2v-616z" />
<glyph unicode="&#x412;" horiz-adv-x="1214" d="M184 0v1395h412q233 0 345 -64.5t112 -218.5q0 -137 -90.5 -232.5t-233.5 -129.5q66 -4 127.5 -21.5t119.5 -53.5t93 -99.5t35 -147.5q0 -219 -184 -346q-55 -39 -138.5 -58.5t-141.5 -22.5t-153 -1h-303zM365 76h204q152 0 248 89t96 228q0 170 -110.5 238.5 t-313.5 68.5h-124v-624zM365 780h49h55q12 0 48 1t54.5 4t48 7.5t52 11.5t45.5 17q158 70 157 248q0 139 -88 194.5t-260 55.5h-161v-539z" />
<glyph unicode="&#x413;" horiz-adv-x="985" d="M184 -4v1399h727q0 -6 -3 -27.5t-3 -34.5l6 -61q-76 14 -184 22l-205 4h-157v-1302q-66 4 -91 4q-33 0 -90 -4z" />
<glyph unicode="&#x414;" horiz-adv-x="1366" d="M-6 96h88q410 891 559 1299q47 -4 94 0q424 -1026 547 -1299h88q-6 -35 -6 -80q0 -66 6 -122h-24q-39 74 -121 90t-283 16h-500q-139 0 -199.5 -4t-124 -27.5t-100.5 -74.5h-24q6 61 6 122q0 45 -6 80zM213 102q393 -6 438 -6q33 0 439 6q-207 541 -426 1069h-15 q-262 -575 -436 -1069z" />
<glyph unicode="&#x415;" horiz-adv-x="1024" d="M182 0v1395h727q0 -6 -3 -27.5t-3 -34.5l6 -61q-78 14 -184 22l-205 4h-158v-514h318q35 0 96.5 5.5t85.5 5.5q-6 -49 -6 -54q0 -10 3 -29.5t3 -27.5q-25 0 -86 5t-96 5h-318v-598q63 -2 371 8q92 2 189 19q0 -6 -3.5 -27.5t-3.5 -34.5l7 -61h-740z" />
<glyph unicode="&#x416;" horiz-adv-x="1820" d="M37 4q444 580 608 768l-584 623q14 0 41 -3t39 -3q14 0 42 3t40 3q516 -592 553 -621q37 -27 45 -12v633q16 0 46 -3t44.5 -3t48 3t41.5 3v-633q0 -18 37 6q4 2 9 6q16 12 154 168t269 303l129 150q12 0 40 -3t42 -3q12 0 39 3t41 3l-583 -623q74 -84 225 -275.5 t268 -340.5l115 -152v-10q-57 6 -113 6q-63 0 -114 -6l-523 708q0 4 -8 7.5t-17.5 3.5t-9.5 -4v-715q-55 6 -94 6q-25 0 -86 -6v715q0 4 -9 4t-17.5 -3t-8.5 -8q-477 -643 -522 -708q-104 6 -114 6q-20 0 -60.5 -3t-52.5 -3v10z" />
<glyph unicode="&#x417;" horiz-adv-x="1097" d="M100 98l4 117q150 -166 357 -166q152 0 246 104.5t94 252.5q0 133 -85 214.5t-257 81.5q-80 0 -125 -8q6 41 0 88q29 -4 82 -4q158 0 240.5 83t82.5 212q0 121 -71.5 198t-202.5 77q-221 0 -326 -189l-28 4q8 123 4 183q178 80 372 79q217 0 329 -88t112 -231 q0 -119 -75 -214t-214 -144q176 -12 266 -101.5t90 -232.5q0 -184 -140 -314.5t-382 -130.5q-213 0 -373 129z" />
<glyph unicode="&#x418;" horiz-adv-x="1593" d="M184 -6v1401q20 -6 90 -6q10 0 91 6v-1069h20q262 281 422 465q90 104 218 254.5t210 248.5l82 101h90v-1401q-55 6 -90 6q-29 0 -90 -6v1118h-21q-217 -231 -438 -489q-180 -209 -340 -403.5t-178 -225.5h-66z" />
<glyph unicode="&#x419;" horiz-adv-x="1593" d="M184 -6v1401q20 -6 90 -6q10 0 91 6v-1069h20q262 281 422 465q90 104 218 254.5t210 248.5l82 101h90v-1401q-55 6 -90 6q-29 0 -90 -6v1118h-21q-217 -231 -438 -489q-180 -209 -340 -403.5t-178 -225.5h-66zM487 1698l48 35q86 -143 266 -144q178 0 268 144l49 -33 q-98 -209 -323 -209q-109 0 -190 59.5t-118 147.5z" />
<glyph unicode="&#x41a;" horiz-adv-x="1251" d="M184 -6v1401q86 -6 90 -6q16 0 49 3t42 3v-633q0 -6 9 -6t20.5 5t21.5 13q37 29 108 100l504 521q80 -6 82 -6q14 0 44 3t36 3l-465 -447l-174 -176q74 -84 242 -272.5t256 -290.5l165 -205v-10q-10 0 -51 3t-61 3q-4 0 -115 -6q-76 111 -141 186l-447 522q-4 4 -13 7.5 t-15 3.5t-6 -4v-715q-8 0 -41 3t-50 3q-4 0 -90 -6z" />
<glyph unicode="&#x41b;" horiz-adv-x="1327" d="M12 -6q61 117 310 682t299 719q10 -2 48 -2t48 2q504 -1227 594 -1401q-92 6 -99 6q-18 0 -55 -3t-45 -3l-465 1177h-18q-313 -709 -467 -1177q-74 6 -76 6q-12 0 -40 -3t-34 -3z" />
<glyph unicode="&#x41c;" horiz-adv-x="1820" d="M96 -6q43 268 113 758.5t84 642.5h53q344 -682 580 -1073q76 137 275.5 502.5t314.5 570.5h43q94 -891 165 -1401q-10 0 -43.5 3t-52.5 3q-4 0 -96 -6q-68 793 -105 1057q-387 -692 -536 -1035h-23l-112 232q-80 164 -414 803q-8 -70 -33.5 -286t-35 -310.5t-20.5 -233.5 t-11 -227q-6 0 -33 3t-39 3z" />
<glyph unicode="&#x41d;" horiz-adv-x="1593" d="M184 -6v1401q86 -6 90 -6q16 0 49 3t42 3v-588q369 -10 432 -10q68 0 430 10v588q86 -6 90 -6q16 0 49 3t41 3v-1401q-8 0 -41 3t-49 3q-4 0 -90 -6v704q-362 10 -430 11q-63 0 -432 -11v-704q-8 0 -41 3t-50 3q-4 0 -90 -6z" />
<glyph unicode="&#x41e;" horiz-adv-x="1705" d="M86 694q0 330 216 530.5t542 200.5q150 0 285 -42t246.5 -122.5t178 -219t66.5 -316.5q0 -340 -217 -548t-563 -208q-340 0 -547 198.5t-207 526.5zM287 670q0 -299 159.5 -466t399.5 -167q123 0 226.5 48t168 123t107.5 167t59 177t12 157q0 285 -129 450 q-76 96 -188.5 147.5t-237.5 51.5q-268 0 -422.5 -187.5t-154.5 -500.5z" />
<glyph unicode="&#x41f;" horiz-adv-x="1593" d="M184 -6v1401h1223v-1401q-8 0 -41 3t-49 3q-4 0 -90 -6v1298q-219 6 -430 6t-432 -6v-1298q-8 0 -41 3t-50 3q-4 0 -90 -6z" />
<glyph unicode="&#x420;" horiz-adv-x="1175" d="M184 -6v1401h367q297 0 412.5 -75t115.5 -261q0 -180 -106.5 -276.5t-331.5 -141.5q-41 -8 -95 -9t-112.5 2t-68.5 3v-643q-8 0 -41 3t-50 3q-4 0 -90 -6zM365 717q86 -10 202 0q152 14 238 104t86 228q0 111 -57.5 182.5t-174.5 81.5q-135 12 -294 2v-598z" />
<glyph unicode="&#x421;" horiz-adv-x="1366" d="M78 702q0 336 218 529.5t554 193.5q223 0 440 -94q-25 -61 -43 -157l-14 -3q-39 51 -147.5 114t-243.5 63q-182 0 -312.5 -92.5t-190.5 -238t-60 -323.5q0 -293 152.5 -469t395.5 -176q100 0 203 37t150 68.5t82 60.5l-11 -129q-174 -117 -452 -117q-336 0 -528.5 197.5 t-192.5 535.5z" />
<glyph unicode="&#x422;" d="M41 1272q6 31 6 61l-6 62h1057q0 -6 -3 -27.5t-3 -34.5l6 -61q-205 25 -428 24v-1302q-49 6 -90 6q-47 0 -91 -6v1302q-215 1 -448 -24z" />
<glyph unicode="&#x423;" horiz-adv-x="1327" d="M12 1395q92 -6 127 -6q2 0 107 6q231 -475 499 -860h19q281 530 414 860q35 -6 69 -6q12 0 40 3t34 3q-369 -686 -504 -959.5t-182 -441.5q-61 6 -70 6q-43 0 -92 -6q100 156 186 346q-244 424 -647 1055z" />
<glyph unicode="&#x424;" horiz-adv-x="1820" d="M86 739q0 262 191.5 405.5t541.5 143.5v107q27 -6 90 -6q59 0 90 6v-107q733 0 734 -536q0 -266 -198 -449.5t-536 -189.5v-119q-29 6 -90 6t-90 -6v119q-344 6 -538.5 178t-194.5 448zM287 719q0 -238 144 -383.5t388 -151.5v1033q-256 0 -394 -131t-138 -367zM999 184 q238 6 385.5 172t147.5 408q0 221 -137.5 337t-395.5 116v-1033z" />
<glyph unicode="&#x425;" horiz-adv-x="1251" d="M74 -6q37 55 121 176t127 186l227 342q-35 55 -114 186.5t-122 200.5l-202 310q104 -6 110 -6q20 0 60.5 3t50.5 3q35 -57 104 -176l217 -373q25 41 154 237.5t190 311.5q74 -6 76 -6q14 0 43 3t33 3q-18 -18 -35 -41l-313 -436l-101 -152l476 -772q-8 0 -49.5 3t-63.5 3 q-2 0 -113 -6q-164 322 -354 622q-190 -287 -371 -622q-4 0 -32.5 3t-42.5 3q-2 0 -76 -6z" />
<glyph unicode="&#x426;" horiz-adv-x="1593" d="M184 0v1401q41 -6 90 -6q47 0 91 6v-1299q393 -6 426 -6q8 0 426 6v1299q33 -6 90 -6q45 0 90 6v-1305h114q-6 -45 -6 -80l6 -122h-24q-39 74 -121 90t-283 16h-899z" />
<glyph unicode="&#x427;" horiz-adv-x="1478" d="M147 909v486q86 -6 91 -6q16 0 48.5 3t41.5 3v-457q0 -131 86 -195.5t227 -64.5q250 0 471 125v592q86 -6 90 -6q16 0 49 3t41 3v-1401q-8 0 -40.5 3t-49.5 3q-4 0 -90 -6v708q-260 -143 -514 -143q-197 0 -324 88t-127 262z" />
<glyph unicode="&#x428;" horiz-adv-x="1820" d="M184 0v1401q41 -6 90 -6q45 0 91 6v-1299q190 -6 221 -6q25 0 233 6v1299q43 -6 90 -6q59 0 90 6v-1299q203 -6 234 -6q18 0 221 6v1299q43 -6 90 -6q45 0 90 6v-1401h-1450z" />
<glyph unicode="&#x429;" horiz-adv-x="1820" d="M184 0v1401q41 -6 90 -6q47 0 91 6v-1299q197 -6 231 -6q31 0 221 6v1299q43 -6 90 -6t90 6v-1299q197 -6 234 -6q41 0 219 6v1299q33 -6 90 -6q45 0 90 6v-1305h115q-6 -37 -6 -80q0 -53 6 -122h-25q-39 74 -120.5 90t-282.5 16h-1133z" />
<glyph unicode="&#x42a;" horiz-adv-x="1175" d="M41 1272q6 31 6 61.5t-6 61.5h344v-615h186q274 0 404.5 -77.5t124.5 -276.5q-8 -223 -171 -324.5t-421 -101.5h-303v1294q-66 1 -164 -22zM385 84h203q152 14 237.5 104.5t85.5 227.5q0 113 -58 192.5t-173 89.5q-23 2 -295 2v-616z" />
<glyph unicode="&#x42b;" horiz-adv-x="1630" d="M184 0v1395q80 -6 90 -6q16 0 49 3t42 3v-615h186q293 0 410.5 -82t117.5 -272q0 -184 -105.5 -282.5t-332.5 -135.5q-51 -8 -457 -8zM365 84h202q152 14 238 104.5t86 227.5q0 113 -58.5 192.5t-173.5 89.5q-23 2 -294 2v-616zM1266 -6v1401q43 -6 90 -6q59 0 90 6 v-1401q-8 0 -41 3t-49 3q-4 0 -90 -6z" />
<glyph unicode="&#x42c;" horiz-adv-x="1175" d="M184 0v1395q43 -6 90 -6q12 0 27.5 1t34 3t29.5 2v-615h186q293 0 410.5 -82t117.5 -272q0 -180 -106.5 -276.5t-331.5 -141.5q-27 -6 -79 -8t-115 -2h-115q-53 0 -99.5 1t-48.5 1zM365 84h202q152 14 238 104.5t86 227.5q0 113 -58.5 192.5t-173.5 89.5q-23 2 -294 2 v-616z" />
<glyph unicode="&#x42d;" horiz-adv-x="1366" d="M98 98l6 117q190 -166 435 -166q231 0 389.5 165t158.5 480h-571q-113 0 -182 -10q12 61 0 111q61 -10 182 -11h567q-29 289 -180 426.5t-354 137.5q-268 0 -416 -183l-22 2q10 131 4 181q199 78 413 77q152 0 286 -42t241.5 -123.5t170 -218t62.5 -308.5 q0 -199 -62.5 -351.5t-169 -239.5t-231.5 -130t-266 -43q-268 0 -461 129z" />
<glyph unicode="&#x42e;" horiz-adv-x="2082" d="M184 -6v1401q37 -6 90 -6q45 0 91 6v-588q74 -6 188 -2q37 285 234.5 452.5t478.5 167.5q141 0 270 -42t235.5 -122.5t170 -219t63.5 -316.5q0 -340 -207 -548t-534 -208q-324 0 -519.5 199t-195.5 530q-88 8 -184 0v-704q-86 6 -90.5 6t-90.5 -6zM748 670 q0 -299 148 -466t374 -167q248 0 392 200.5t144 471.5q0 285 -118 450q-72 96 -178.5 147.5t-221.5 51.5q-252 0 -396 -186.5t-144 -501.5z" />
<glyph unicode="&#x42f;" horiz-adv-x="1251" d="M39 -6q338 393 555 688q-174 16 -295 105.5t-121 254.5q0 160 123 256.5t352 96.5h414v-1401q-86 6 -90 6q-16 0 -49 -3t-41 -3v684h-92q-403 -541 -514 -684q-111 6 -113 6zM360 1032q0 -115 73 -185.5t190 -84.5q104 -10 264 -6v563q-225 10 -301 -8 q-226 -58 -226 -279z" />
<glyph unicode="&#x430;" horiz-adv-x="1024" d="M92 227q0 68 23.5 118t53.5 78t89 49.5t99 29.5t116 20q133 23 175 45.5t42 91.5q0 115 -62.5 177.5t-176.5 62.5q-98 0 -164 -48t-80 -93h-23v114q164 113 330 113q332 0 332 -344v-475v-10q0 -29 1 -41.5t6 -27.5t17.5 -18t34 -4.5t56.5 7.5v-45q-37 -16 -62 -21 q-190 -33 -211 119l-18 -19q-129 -129 -303 -129q-113 0 -194 69.5t-81 180.5zM262 256q0 -190 201 -190q86 0 164 77q2 2 19.5 17.5t26.5 27t9 17.5v299l-72 -17q-10 -2 -47 -8t-53 -10t-51 -12t-52.5 -16.5t-44 -20.5t-41 -27.5t-31 -35t-22.5 -45t-6 -56.5z" />
<glyph unicode="&#x431;" d="M72 471q0 180 26.5 323.5t69.5 238.5t109.5 168t133 114t152.5 78q98 41 227.5 84t155.5 55q0 -74 19 -152q-47 -27 -283 -100q-98 -33 -169 -66.5t-148.5 -91t-127 -147.5t-65.5 -207q145 217 420 217q213 0 344 -136t131 -364q0 -209 -135 -358.5t-377 -149.5 q-213 0 -348 134.5t-135 359.5zM252 461q0 -172 79 -296t240 -124q84 0 149.5 47t99.5 121t50.5 147.5t16.5 139.5q0 102 -24.5 193t-95.5 162t-177 71q-94 0 -163 -41t-104.5 -110t-53 -145.5t-17.5 -164.5z" />
<glyph unicode="&#x432;" horiz-adv-x="1024" d="M158 0v963h362q176 0 261 -45.5t85 -151.5q0 -96 -63.5 -159.5t-169.5 -88.5q72 -4 133 -23.5t112.5 -70.5t51.5 -127q0 -154 -139 -240q-98 -61 -330 -57h-303zM322 74h217q96 0 158.5 58t62.5 147q0 109 -73 152.5t-204 43.5h-161v-401zM322 547h135q119 0 186.5 46 t67.5 138q0 88 -57.5 123t-168.5 35h-163v-342z" />
<glyph unicode="&#x433;" horiz-adv-x="833" d="M158 -6v969h651q-6 -55 0 -105q-166 31 -487 31v-895q-80 6 -82 6t-82 -6z" />
<glyph unicode="&#x434;" horiz-adv-x="1024" d="M6 74h76q262 537 393 897q47 -6 92 0q43 -117 381 -897h70q-12 -51 0 -154h-21q-37 39 -90 56.5t-98 20.5t-143 3h-308q-96 0 -141 -3t-98 -20.5t-90 -56.5h-23q12 93 0 154zM199 78q178 -4 293 -4l280 4q-109 307 -272 670h-13q-165 -340 -288 -670z" />
<glyph unicode="&#x435;" horiz-adv-x="1024" d="M72 481q0 221 123.5 362.5t345.5 141.5q184 0 307 -130t108 -372q-209 6 -415 6h-289q-14 -180 80 -303t274 -123q156 0 303 142l-2 -107q-170 -121 -352 -121q-215 0 -349 135.5t-134 368.5zM252 565h545q-8 356 -256 357q-133 0 -206 -105t-83 -252z" />
<glyph unicode="&#x436;" horiz-adv-x="1478" d="M31 4q90 104 258 300t223 259q-113 106 -279.5 248.5t-171.5 146.5v15q10 0 38 -3t42 -3q43 0 82 6l160 -176l127 -129q127 -127 137 -121t10 67v359q39 -6 82 -6q39 0 82 6v-359q0 -61 10.5 -67t137.5 121l127 129l159 176q37 -6 82 -6q37 0 80 6v-15q-4 -4 -171 -146 t-279 -249q55 -63 223 -258.5t258 -300.5v-10q-20 0 -52 3t-48 3q-18 0 -52 -3t-51 -3q-150 197 -385 461q-31 35 -35 26q-4 -6 -4 -69v-418q-4 0 -34.5 3t-47.5 3q-10 0 -23.5 -1t-30.5 -3t-28 -2v418q0 72 -8 73q-4 0 -31 -30q-260 -295 -385 -461q-16 0 -49.5 3t-52.5 3 q-16 0 -48 -3t-52 -3v10z" />
<glyph unicode="&#x437;" horiz-adv-x="870" d="M68 80v92h10q125 -125 274 -125q104 0 175 63.5t71 168.5q0 199 -252 198q-39 0 -72 -4q4 37 0 76q33 -4 68 -4q102 0 157.5 56t55.5 140t-57.5 129t-139.5 45q-78 0 -147.5 -39.5t-99.5 -111.5l-21 2q4 43 -2 156q139 63 303 63q141 0 233.5 -56.5t92.5 -164.5 q0 -82 -57.5 -147.5t-163.5 -100.5q135 -8 204.5 -70.5t69.5 -160.5q0 -127 -108.5 -217.5t-294.5 -90.5q-156 1 -299 103z" />
<glyph unicode="&#x438;" d="M158 -6v979q25 -6 82 -6q53 0 82 6v-713q299 324 577 713h82v-979q-4 0 -35 3t-47 3q-2 0 -82 -6v713q-385 -432 -577 -713h-82z" />
<glyph unicode="&#x439;" d="M158 -6v979q39 -6 82 -6q39 0 82 6v-713q299 324 577 713h82v-979q-4 0 -35 3t-47 3q-43 0 -82 -6v713q-385 -432 -577 -713h-82zM262 1276l47 35q86 -143 266 -144q178 0 269 144l49 -33q-98 -209 -324 -209q-109 0 -189.5 59.5t-117.5 147.5z" />
<glyph unicode="&#x43a;" horiz-adv-x="1024" d="M162 -6v979q80 -6 82 -6q16 0 44.5 3t37.5 3v-359q0 -6 -1 -19t-1 -20.5t3 -15.5t9 -12q37 -20 178 121l127 129l160 176q80 -6 82 -6q14 0 41.5 3t38.5 3v-15q-4 -4 -171 -146t-280 -249q55 -63 223 -258.5t258 -300.5v-10q-12 0 -47 3t-53 3q-4 0 -102 -6 q-86 113 -392 461q-74 84 -73 -43v-418q-8 0 -37 3t-45 3q-2 0 -82 -6z" />
<glyph unicode="&#x43b;" horiz-adv-x="985" d="M23 -8q57 106 218.5 470.5t215.5 508.5q47 -6 92 0q178 -461 418 -979q-86 6 -93 6q-16 0 -47.5 -3t-42.5 -3q-121 346 -303 756h-12q-92 -186 -183 -406.5t-132 -349.5q-61 6 -66 6q-12 0 -35.5 -3t-29.5 -3z" />
<glyph unicode="&#x43c;" horiz-adv-x="1366" d="M70 -6q43 180 139 977q31 -2 55 0q252 -496 428 -762q180 311 408 762q29 -2 55 0q23 -199 62.5 -525.5t54.5 -451.5q-86 6 -90 6q-16 0 -49 -3t-41 -3q-20 397 -56 668q-188 -305 -368 -668q-25 2 -47 0q-195 381 -373 668q-66 -496 -70 -668q-2 0 -19.5 3t-31.5 3 q-12 0 -29.5 -3t-27.5 -3z" />
<glyph unicode="&#x43d;" d="M158 -6v979q37 -6 82 -6q43 0 82 6v-418q86 -4 247 -4q168 0 248 4v418q74 -6 82 -6q39 0 82 6v-979q-4 0 -35 3t-47 3q-43 0 -82 -6v477q-164 4 -248 4q-76 0 -247 -4v-477q-4 0 -35 3t-47 3q-2 0 -82 -6z" />
<glyph unicode="&#x43e;" d="M72 492q0 219 148.5 356t371.5 137q213 0 344 -136t131 -364q0 -209 -135 -358.5t-377 -149.5q-213 0 -355 144t-128 371zM252 461q0 -172 79 -296t240 -124q84 0 149.5 47t99.5 121t50.5 147.5t16.5 139.5q0 102 -24.5 193t-95.5 162t-177 71q-94 0 -163 -41 t-104.5 -110t-53 -145.5t-17.5 -164.5z" />
<glyph unicode="&#x43f;" d="M158 -6v969h823v-969q-4 0 -35 3t-47 3q-2 0 -82 -6v891q-152 4 -248 4l-247 -4v-891q-43 6 -82 6q-8 0 -82 -6z" />
<glyph unicode="&#x440;" d="M135 -530v1503q80 -6 82 -6q16 0 45 3t37 3v-195h4q20 41 36.5 64.5t55.5 64.5t103.5 61.5t150.5 20.5q190 0 301 -139t111 -334q0 -250 -122 -394.5t-321 -144.5q-211 0 -315 197h-4v-704q-8 0 -37 3t-45 3q-2 0 -82 -6zM299 457q0 -174 76 -284t225 -110q145 0 213 124 t68 321q0 172 -66.5 283.5t-216.5 111.5q-84 0 -145.5 -42t-93 -110.5t-46 -142t-14.5 -151.5z" />
<glyph unicode="&#x441;" horiz-adv-x="985" d="M72 485q0 233 147.5 366.5t382.5 133.5q186 0 324 -84l-47 -135h-17q-41 55 -55 68q-72 82 -203 81q-168 0 -260 -122.5t-92 -296.5q0 -199 103.5 -324t269.5 -125q82 0 145.5 33t136.5 100l13 -6l-11 -94q-139 -102 -313 -103q-248 0 -386 142.5t-138 365.5z" />
<glyph unicode="&#x442;" horiz-adv-x="909" d="M20 858q6 49 0 105h869q-6 -55 0 -105q-195 31 -352 31v-895q-80 6 -82 6t-82 -6v895q-144 0 -353 -31z" />
<glyph unicode="&#x443;" horiz-adv-x="1024" d="M53 973q92 -6 99 -6q18 0 52 3t44 3q117 -358 305 -760q131 270 307 760q33 -6 68 -6q31 0 65 6q-53 -117 -172 -379t-180 -399.5t-150.5 -343t-158.5 -381.5q-8 0 -33 3t-37 3q-2 0 -69 -6q227 444 274 532z" />
<glyph unicode="&#x444;" horiz-adv-x="1593" d="M74 473q0 215 106.5 363.5t274.5 148.5q174 0 260 -199v746q80 -6 82 -6q16 0 44.5 3t37.5 3v-760q49 109 116.5 161t167.5 52q154 0 255.5 -128t101.5 -368q0 -215 -106.5 -363.5t-274.5 -148.5q-174 0 -260 199v-706q-80 6 -82 6q-16 0 -45 -3t-37 -3v720 q-49 -109 -117 -161t-168 -52q-154 0 -255 128t-101 368zM254 444q0 -72 11 -137t36 -124.5t70 -95.5t106 -36q82 0 138.5 78t78 177.5t21.5 203.5q0 92 -21.5 178t-73 149.5t-122.5 63.5q-244 0 -244 -457zM879 453q0 -150 55 -271t162 -121q244 0 243 457q0 72 -11 137.5 t-35.5 125t-69.5 95t-107 35.5q-82 0 -138 -77.5t-77.5 -177t-21.5 -203.5z" />
<glyph unicode="&#x445;" horiz-adv-x="1024" d="M59 973l105 -6q20 0 57 3t47 3q43 -76 127 -196t137 -185l115 147l172 234q68 -6 70 -6q14 0 39.5 3t32.5 3q-201 -215 -381 -441l383 -518v-20q-10 0 -44 3t-53 3q-4 0 -96 -6q-127 211 -289 422q-195 -256 -295 -422q-6 0 -27.5 3t-33.5 3l-62 -6v20q252 313 369 463z " />
<glyph unicode="&#x446;" d="M158 0v973q68 -6 82 -6q39 0 82 6v-895q150 -4 243 -4l252 4v895q35 -6 82 -6q8 0 82 6v-899h104q-14 -59 0 -154h-20q-51 55 -123 68.5t-209 11.5h-575z" />
<glyph unicode="&#x447;" horiz-adv-x="1062" d="M102 600v373q74 -6 82 -6q2 0 82 6v-355q0 -76 49.5 -114.5t130.5 -38.5q162 0 283 80v428q74 -6 82 -6q39 0 82 6v-979q-80 6 -82 6q-41 0 -82 -6v475q-143 -94 -323 -94q-131 0 -217.5 56t-86.5 169z" />
<glyph unicode="&#x448;" horiz-adv-x="1478" d="M158 0v973q25 -6 82 -6q53 0 82 6v-895q96 -4 157 -4l178 4v895q23 -6 82 -6q51 0 82 6v-895q104 -4 170 -4l166 4v895q23 -6 82 -6q57 0 82 6v-973h-1163z" />
<glyph unicode="&#x449;" horiz-adv-x="1478" d="M158 0v973q68 -6 82 -6q43 0 82 6v-895q100 -4 165 -4l170 4v895q27 -6 82 -6q39 0 82 6v-895q104 -4 170 -4l166 4v895q35 -6 82 -6q8 0 82 6v-899h104q-14 -53 0 -154h-20q-37 39 -90 56.5t-98.5 20.5t-143.5 3h-915z" />
<glyph unicode="&#x44a;" horiz-adv-x="948" d="M20 858q10 51 0 105h302v-414h215q346 0 346 -260q0 -80 -49.5 -147.5t-128.5 -106.5q-70 -35 -185 -35h-362v889q-62 0 -138 -31zM322 78l147 -4q111 -4 177.5 51t66.5 151q0 199 -226 199h-165v-397z" />
<glyph unicode="&#x44b;" horiz-adv-x="1327" d="M158 0v973q31 -6 84 -6t80 6v-424h215q346 0 346 -260q0 -80 -49.5 -147.5t-128.5 -106.5q-70 -35 -185 -35h-362zM322 78l147 -4q111 -4 177.5 51t66.5 151q0 199 -226 199h-165v-397zM1006 -6v979q37 -6 81 -6q43 0 82 6v-979q-4 0 -34.5 3t-47.5 3q-1 0 -81 -6z" />
<glyph unicode="&#x44c;" horiz-adv-x="948" d="M158 0v973q31 -6 84 -6t80 6v-424h215q346 0 346 -260q0 -80 -49.5 -147.5t-128.5 -106.5q-70 -35 -185 -35h-362zM322 78l147 -4q111 -4 177.5 51t66.5 151q0 199 -226 199h-165v-397z" />
<glyph unicode="&#x44d;" horiz-adv-x="985" d="M68 82v90h10q133 -125 291 -125q147 0 251.5 116t110.5 312h-303q-113 0 -154 -6q8 45 0 92q53 -10 154 -10h301q-12 178 -115.5 271t-236.5 93q-86 0 -159 -39.5t-105 -109.5h-17q-10 106 -18 149q162 70 319 70q219 0 366.5 -125t147.5 -354q0 -252 -150.5 -390.5 t-361.5 -138.5q-184 1 -331 105z" />
<glyph unicode="&#x44e;" horiz-adv-x="1476" d="M158 -6v979q74 -6 82 -6q2 0 82 6v-412h141q23 190 159 307t330 117q201 0 327 -136t126 -364q0 -209 -129 -358.5t-358 -149.5q-197 0 -330 136.5t-127 355.5h-139v-475q-4 0 -35 3t-47 3q-2 0 -82 -6zM639 461q0 -174 71.5 -297t223.5 -123q78 0 138.5 47t91 121 t46 146.5t15.5 140.5q0 104 -22.5 194t-87 161t-165.5 71q-115 0 -187.5 -73t-98 -170t-25.5 -218z" />
<glyph unicode="&#x44f;" horiz-adv-x="985" d="M33 -6q283 348 358 461q-43 8 -84 20t-94 40t-86 80t-33 120q0 115 93.5 181.5t269.5 66.5h370v-969q-68 6 -79 6q-10 0 -84 -6v448h-97q-219 -317 -321 -448q-68 6 -94 6q-8 0 -119 -6zM262 711q0 -195 303 -195h99v373q-123 2 -201 2q-92 0 -146.5 -48t-54.5 -132z" />
<glyph unicode="&#x450;" horiz-adv-x="1024" d="M131 1409q8 25 32.5 37t51.5 6q20 -8 27 -15q14 -10 77 -73l259 -256h-72l-322 200q-45 35 -51 45q-12 27 -2 56zM72 481q0 221 123.5 362.5t345.5 141.5q184 0 307 -130t108 -372q-209 6 -415 6h-289q-14 -180 80 -303t274 -123q156 0 303 142l-2 -107 q-170 -121 -352 -121q-215 0 -349 135.5t-134 368.5zM252 565h545q-8 356 -256 357q-133 0 -206 -105t-83 -252z" />
<glyph unicode="&#x451;" horiz-adv-x="1024" d="M70 481q0 221 123.5 362.5t345.5 141.5q184 0 307 -130t108 -372q-209 6 -415 6h-289q-14 -180 80 -303t274 -123q156 0 303 142l-2 -107q-170 -121 -352 -121q-215 0 -349 135.5t-134 368.5zM217 1223q0 37 27.5 65.5t66.5 28.5t67 -27.5t28 -66.5t-29 -67t-66 -28 t-65.5 29t-28.5 66zM250 565h545q-8 356 -256 357q-133 0 -206 -105t-83 -252zM618 1223q0 37 28 65.5t67 28.5t66.5 -28.5t27.5 -65.5t-28.5 -66t-65.5 -29t-66 29t-29 66z" />
<glyph unicode="&#x452;" d="M31 1153q8 39 0 78h127v301q80 -6 82 -6q16 0 44.5 3t37.5 3v-301h325q-10 -45 0 -78h-325v-367q115 199 329 199q174 0 252 -100.5t78 -298.5v-602q0 -145 -24.5 -250t-104.5 -183q-113 -98 -236 -92l-14 66l19 -4q88 -18 149 129q47 117 47 342v547q0 178 -50 259 t-177 81q-268 0 -268 -328v-557q-8 0 -37 3t-45 3q-2 0 -82 -6v1159h-127z" />
<glyph unicode="&#x453;" horiz-adv-x="833" d="M158 -6v969h651q-6 -55 0 -105q-166 31 -487 31v-895q-80 6 -82 6t-82 -6zM268 1090l256 256q0 2 20.5 21t30.5 30q6 4 16.5 13t20 15.5t19.5 8.5q25 6 49.5 -6.5t32.5 -36.5q16 -37 -2 -56q-6 -16 -52 -45l-321 -200h-70z" />
<glyph unicode="&#x454;" horiz-adv-x="985" d="M72 485q0 233 147.5 366.5t382.5 133.5q186 0 324 -84l-47 -135h-17q-41 55 -55 68q-72 82 -203 81q-154 0 -245 -104t-105 -260h192l242 10v-92q-147 6 -242 6h-194q6 -190 108.5 -309t264.5 -119q82 0 145.5 33t136.5 100l13 -6l-11 -94q-139 -102 -313 -103 q-248 0 -386 142.5t-138 365.5z" />
<glyph unicode="&#x455;" horiz-adv-x="796" d="M86 43q37 111 43 150h16q39 -63 103.5 -107.5t132.5 -44.5q78 0 139.5 53t61.5 133q0 76 -50.5 118t-121 60.5t-141 40t-121 80t-50.5 156.5q0 143 95.5 223t238.5 80t232 -53q-31 -70 -50 -146h-18q-20 53 -70.5 94.5t-103.5 41.5q-80 0 -133 -45.5t-53 -124.5 q0 -72 50 -115t120.5 -64.5t141 -45t121 -80t50.5 -146.5q0 -154 -113.5 -239t-263.5 -85q-147 0 -256 66z" />
<glyph unicode="&#x456;" horiz-adv-x="569" d="M180 1323q0 43 31 73.5t74 30.5q41 0 72.5 -30.5t31.5 -73.5t-31.5 -73.5t-72.5 -30.5q-43 0 -74 30.5t-31 73.5zM203 -6v979q80 -6 82 -6q16 0 44.5 3t37.5 3v-979q-8 0 -37 3t-45 3q-2 0 -82 -6z" />
<glyph unicode="&#x457;" horiz-adv-x="569" d="M-10 1223q0 37 27.5 65.5t66.5 28.5t66.5 -27.5t27.5 -66.5t-28.5 -67t-65.5 -28t-65.5 29t-28.5 66zM203 -6v979q80 -6 82 -6q16 0 44.5 3t37.5 3v-979q-8 0 -37 3t-45 3q-2 0 -82 -6zM391 1223q0 37 27.5 65.5t66.5 28.5t67 -28.5t28 -65.5t-29 -66t-65.5 -29t-65.5 29 t-29 66z" />
<glyph unicode="&#x458;" horiz-adv-x="569" d="M0 -475l18 -4q88 -18 150 129q47 117 47 342v981q80 -6 82 -6q16 0 45 3t37 3v-989q0 -145 -24.5 -250t-104.5 -183q-113 -98 -236 -92zM193 1323q0 43 30.5 73.5t73.5 30.5q41 0 72.5 -30.5t31.5 -73.5t-31.5 -73.5t-72.5 -30.5q-43 0 -73.5 30.5t-30.5 73.5z" />
<glyph unicode="&#x459;" horiz-adv-x="1400" d="M23 -8q336 696 432 971h319v-414h215q346 0 346 -260q0 -80 -49 -147.5t-129 -106.5q-70 -35 -184 -35h-363v885q-39 2 -82 0q-96 -190 -206 -459l-168 -434q-61 6 -66 6q-12 0 -35.5 -3t-29.5 -3zM774 78l148 -4q111 -4 177 51t66 151q0 199 -225 199h-166v-397z" />
<glyph unicode="&#x45a;" horiz-adv-x="1515" d="M158 -6v979q37 -6 82 -6q43 0 82 6v-412q113 -10 202 -10q109 0 201 10v412q31 -6 84 -6q51 0 80 6v-424h215q346 0 346 -260q0 -80 -49 -147.5t-129 -106.5q-70 -35 -185 -35h-362v469q-184 6 -201 6q-6 0 -202 -6v-475q-4 0 -35 3t-47 3q-2 0 -82 -6zM889 78l147 -4 q111 -4 177.5 51t66.5 151q0 199 -225 199h-166v-397z" />
<glyph unicode="&#x45b;" d="M31 1153q8 39 0 78h127v301q80 -6 82 -6q16 0 44.5 3t37.5 3v-301h325q-10 -45 0 -78h-325v-367q115 199 329 199q174 0 252 -100.5t78 -298.5v-592q-8 0 -37 3t-45 3q-2 0 -82 -6v545q0 178 -50 259t-177 81q-268 0 -268 -328v-557q-8 0 -37 3t-45 3q-2 0 -82 -6v1159 h-127z" />
<glyph unicode="&#x45c;" horiz-adv-x="1024" d="M162 -6v979q80 -6 82 -6q16 0 44.5 3t37.5 3v-359q0 -6 -1 -19t-1 -20.5t3 -15.5t9 -12q37 -20 178 121l127 129l160 176q80 -6 82 -6q14 0 41.5 3t38.5 3v-15q-4 -4 -171 -146t-280 -249q55 -63 223 -258.5t258 -300.5v-10q-12 0 -47 3t-53 3q-4 0 -102 -6 q-86 113 -392 461q-74 84 -73 -43v-418q-8 0 -37 3t-45 3q-2 0 -82 -6zM344 1090l256 256l22 21l29 30q6 4 16.5 13t19.5 15.5t20 8.5q25 6 49 -6.5t32 -36.5q16 -37 -2 -56q-6 -16 -51 -45l-321 -200h-70z" />
<glyph unicode="&#x45d;" d="M160 1409q8 25 32.5 37t51.5 6q20 -8 27 -15q14 -10 77 -73l259 -256h-72l-322 200q-45 35 -51 45q-12 27 -2 56zM158 -6v979q25 -6 82 -6q53 0 82 6v-713q299 324 577 713h82v-979q-4 0 -35 3t-47 3q-2 0 -82 -6v713q-385 -432 -577 -713h-82z" />
<glyph unicode="&#x45e;" horiz-adv-x="1024" d="M53 973q92 -6 99 -6q18 0 52 3t44 3q117 -358 305 -760q131 270 307 760q33 -6 68 -6q31 0 65 6q-53 -117 -172 -379t-180 -399.5t-150.5 -343t-158.5 -381.5q-8 0 -33 3t-37 3q-2 0 -69 -6q227 444 274 532zM229 1276l47 35q86 -143 267 -144q178 0 268 144l49 -33 q-98 -209 -323 -209q-109 0 -190 59.5t-118 147.5z" />
<glyph unicode="&#x45f;" d="M158 0v973q68 -6 82 -6q39 0 82 6v-895q154 -4 247 -4l248 4v895q35 -6 82 -6q8 0 82 6v-973h-330v-125q-4 0 -34.5 3t-47.5 3q-2 0 -82 -6v125h-329z" />
<glyph unicode="&#x490;" horiz-adv-x="985" d="M184 -4v1399h299q139 0 199.5 4t119 27.5t85.5 74.5h24q-6 -39 -6 -123q0 -25 6 -80h-546v-1302q-66 4 -91 4q-33 0 -90 -4z" />
<glyph unicode="&#x491;" horiz-adv-x="833" d="M158 -6v969h299q137 -2 208.5 11t122.5 68h21q-12 -94 0 -153h-487v-895q-80 6 -82 6t-82 -6z" />
<glyph unicode="&#x4ae;" horiz-adv-x="1251" d="M41 1395q111 -6 115 -6q20 0 61 3t51 3q59 -119 199.5 -366t189.5 -320q45 51 392 686q74 -6 79 -6q14 0 44 3t36 3q-76 -96 -145 -205l-225 -363q-68 -102 -115 -204v-629q-8 0 -41 3t-49 3q-4 0 -90 -6v590z" />
<glyph unicode="&#x4c0;" horiz-adv-x="569" d="M195 -6v1401q86 -6 90 -6q16 0 49 3t41 3v-1401q-8 0 -41 3t-49 3q-4 0 -90 -6z" />
<glyph unicode="&#x2000;" horiz-adv-x="946" />
<glyph unicode="&#x2001;" horiz-adv-x="1894" />
<glyph unicode="&#x2002;" horiz-adv-x="946" />
<glyph unicode="&#x2003;" horiz-adv-x="1894" />
<glyph unicode="&#x2004;" horiz-adv-x="630" />
<glyph unicode="&#x2005;" horiz-adv-x="473" />
<glyph unicode="&#x2006;" horiz-adv-x="315" />
<glyph unicode="&#x2007;" horiz-adv-x="315" />
<glyph unicode="&#x2008;" horiz-adv-x="235" />
<glyph unicode="&#x2009;" horiz-adv-x="378" />
<glyph unicode="&#x200a;" horiz-adv-x="104" />
<glyph unicode="&#x2010;" horiz-adv-x="681" d="M84 389v127h512v-127h-512z" />
<glyph unicode="&#x2011;" horiz-adv-x="681" d="M84 389v127h512v-127h-512z" />
<glyph unicode="&#x2012;" horiz-adv-x="681" d="M84 389v127h512v-127h-512z" />
<glyph unicode="&#x2013;" horiz-adv-x="1024" d="M0 403v99h1034v-99h-1034z" />
<glyph unicode="&#x2014;" horiz-adv-x="2048" d="M0 403v99h2048v-99h-2048z" />
<glyph unicode="&#x2018;" horiz-adv-x="569" d="M141 915q0 37 45 109l242 401l35 -14l-144 -455q-12 -35 -18 -53t-27.5 -40.5t-48.5 -22.5q-35 0 -59.5 20t-24.5 55z" />
<glyph unicode="&#x2019;" horiz-adv-x="569" d="M106 854l144 455q12 35 18 53t27.5 40.5t48.5 22.5q35 0 59.5 -20.5t24.5 -54.5q0 -37 -45 -109l-242 -401z" />
<glyph unicode="&#x201a;" horiz-adv-x="569" d="M102 -330l144 455q12 35 18 53.5t27.5 41t48.5 22.5q35 0 59.5 -20.5t24.5 -55.5q0 -37 -45 -109l-242 -401z" />
<glyph unicode="&#x201c;" horiz-adv-x="909" d="M133 915q0 37 45 109l242 401l35 -14l-144 -455q-12 -35 -18 -53t-27.5 -40.5t-48.5 -22.5q-35 0 -59.5 20t-24.5 55zM481 915q0 37 45 109l242 401l35 -14l-144 -455q-12 -35 -18 -53t-27.5 -40.5t-48.5 -22.5q-35 0 -59.5 20t-24.5 55z" />
<glyph unicode="&#x201d;" horiz-adv-x="909" d="M106 854l144 455q12 35 18 53t27.5 40.5t48.5 22.5q35 0 59.5 -20.5t24.5 -54.5q0 -37 -45 -109l-242 -401zM455 854l143 455q12 35 18.5 53t28 40.5t47.5 22.5q35 0 59.5 -20.5t24.5 -54.5q0 -37 -45 -109l-242 -401z" />
<glyph unicode="&#x201e;" horiz-adv-x="909" d="M102 -330l144 455q12 35 18 53.5t27.5 41t48.5 22.5q35 0 59.5 -20.5t24.5 -55.5q0 -37 -45 -109l-242 -401zM451 -330l143 455q12 35 18 53.5t28 41t48 22.5q35 0 59.5 -20.5t24.5 -55.5q0 -37 -45 -109l-242 -401z" />
<glyph unicode="&#x2022;" horiz-adv-x="1241" d="M272 698q4 145 106.5 247t246 102t244 -101.5t100.5 -247t-100.5 -247t-244 -101.5t-246 101.5t-106.5 246.5z" />
<glyph unicode="&#x2026;" horiz-adv-x="2048" d="M219 100q0 49 38 86t87 37t85 -36.5t36 -86.5q0 -51 -36 -87t-85 -36q-51 0 -88 36t-37 87zM901 100q0 49 38 86t87 37t85 -36.5t36 -86.5q0 -51 -36 -87t-85 -36q-51 0 -88 36t-37 87zM1583 100q0 49 38 86t87 37t85 -36.5t36 -86.5q0 -51 -36 -87t-85 -36q-51 0 -88 36 t-37 87z" />
<glyph unicode="&#x202f;" horiz-adv-x="378" />
<glyph unicode="&#x2039;" horiz-adv-x="681" d="M174 459l258 379q33 -39 76 -54l-229 -323l219 -338q-49 -14 -78 -53z" />
<glyph unicode="&#x203a;" horiz-adv-x="681" d="M174 123l229 323l-219 338q49 14 78 54l246 -389l-258 -379q-33 39 -76 53z" />
<glyph unicode="&#x205f;" horiz-adv-x="473" />
<glyph unicode="&#x20ac;" d="M43 547l29 65h104q-2 18 -2 68q0 43 2 61h-133l29 66h110q29 281 146.5 422t365.5 141q246 0 342 -115l13 -155h-39q-14 98 -91 148t-194 50q-184 0 -271 -124.5t-110 -366.5h592l-29 -66h-567q-2 -18 -2 -63v-66h514l-29 -65h-481q16 -242 114.5 -370t268.5 -128 q109 0 188.5 49t96.5 154h39l-13 -150q-100 -123 -342 -122q-467 0 -510 567h-141z" />
<glyph unicode="&#x2122;" horiz-adv-x="1945" d="M102 1323v72h627v-72q-143 14 -254 14v-774q-2 0 -22.5 3t-30.5 3q-4 0 -53 -6v774q-105 0 -267 -14zM877 563q96 610 116 832h31q217 -426 344 -637q51 90 167 304t183 333h25q63 -588 100 -832q-8 0 -27.5 3t-29.5 3q-2 0 -57 -6q-39 475 -64 627q-229 -412 -317 -612 h-13l-67 137q-16 33 -246 475q-55 -494 -59 -627l-43 6z" />
<glyph unicode="&#xe000;" horiz-adv-x="975" d="M0 975h975v-975h-975v975z" />
</font>
</defs>
</svg>
